<svg width="222" height="213" viewBox="0 0 222 213" fill="none" xmlns="http://www.w3.org/2000/svg">
<path opacity="0.5" d="M162.85 67.9004H49.95C40.05 67.9004 32.05 76.0004 32.05 85.9004V181.1L51.85 164.1H162.95C172.85 164.1 180.85 156.1 180.85 146.2V85.9004C180.85 76.0004 172.75 67.9004 162.85 67.9004Z" fill="url(#paint0_linear_4125_80080)"/>
<path d="M162.85 67.9004H49.95C40.05 67.9004 32.05 76.0004 32.05 85.9004V181.1L51.85 164.1H162.95C172.85 164.1 180.85 156.1 180.85 146.2V85.9004C180.85 76.0004 172.75 67.9004 162.85 67.9004Z" stroke="url(#paint1_linear_4125_80080)" stroke-width="2" stroke-miterlimit="10"/>
<path d="M149.25 151.799H56.55C51.05 151.799 46.65 147.399 46.65 141.899V87.7994C46.65 82.2994 51.05 77.8994 56.55 77.8994H149.35C154.85 77.8994 159.25 82.2994 159.25 87.7994V141.999C159.15 147.399 154.75 151.799 149.25 151.799Z" fill="url(#paint2_linear_4125_80080)"/>
<path d="M155.35 151.799H62.65C57.15 151.799 52.75 147.399 52.75 141.899V87.7994C52.75 82.2994 57.15 77.8994 62.65 77.8994H155.45C160.95 77.8994 165.35 82.2994 165.35 87.7994V141.999C165.25 147.399 160.85 151.799 155.35 151.799Z" fill="url(#paint3_linear_4125_80080)"/>
<path d="M108.95 107.999L55.55 149.599C57.05 150.999 59.05 151.799 61.25 151.799H156.55C158.75 151.799 160.75 150.999 162.25 149.599L108.95 107.999Z" fill="url(#paint4_linear_4125_80080)"/>
<path d="M108.95 121.799L162.35 80.199C160.85 78.799 158.85 77.999 156.65 77.999H61.35C59.15 77.999 57.15 78.799 55.65 80.199L108.95 121.799Z" fill="url(#paint5_linear_4125_80080)"/>
<path d="M55.55 80.0996L108.95 121.8L162.35 80.0996" stroke="#CC5833" stroke-width="1.4422" stroke-miterlimit="10"/>
<path d="M155.85 99.9998C168.056 99.9998 177.95 90.1053 177.95 77.8998C177.95 65.6943 168.056 55.7998 155.85 55.7998C143.645 55.7998 133.75 65.6943 133.75 77.8998C133.75 90.1053 143.645 99.9998 155.85 99.9998Z" fill="#D4003C"/>
<path d="M158.75 99.9998C170.956 99.9998 180.85 90.1053 180.85 77.8998C180.85 65.6943 170.956 55.7998 158.75 55.7998C146.545 55.7998 136.65 65.6943 136.65 77.8998C136.65 90.1053 146.545 99.9998 158.75 99.9998Z" fill="#FF335B"/>
<path d="M163.85 88.9002H159.65V70.7002L155.65 70.8002V67.5002L163.85 66.7002V88.9002Z" fill="#D4003C"/>
<path d="M161.85 88.8994H157.65V70.8994L153.65 70.9994V67.6994L161.85 66.8994V88.8994Z" fill="white"/>
<path d="M158.75 31.7002V45.1002" stroke="#FFBB38" stroke-width="4" stroke-miterlimit="10" stroke-linecap="round" stroke-linejoin="round"/>
<path d="M158.75 31.7002V45.1002" stroke="white" stroke-opacity="0.5" stroke-width="4" stroke-miterlimit="10" stroke-linecap="round" stroke-linejoin="round"/>
<path d="M191.45 45.2002L181.95 54.7002" stroke="#FFBB38" stroke-width="4" stroke-miterlimit="10" stroke-linecap="round" stroke-linejoin="round"/>
<path d="M191.45 45.2002L181.95 54.7002" stroke="white" stroke-opacity="0.5" stroke-width="4" stroke-miterlimit="10" stroke-linecap="round" stroke-linejoin="round"/>
<path d="M204.95 77.9004H191.65" stroke="#FFBB38" stroke-width="4" stroke-miterlimit="10" stroke-linecap="round" stroke-linejoin="round"/>
<path d="M204.95 77.9004H191.65" stroke="white" stroke-opacity="0.5" stroke-width="4" stroke-miterlimit="10" stroke-linecap="round" stroke-linejoin="round"/>
<path d="M126.15 45.2002L135.55 54.7002" stroke="#FFBB38" stroke-width="4" stroke-miterlimit="10" stroke-linecap="round" stroke-linejoin="round"/>
<path d="M126.15 45.2002L135.55 54.7002" stroke="white" stroke-opacity="0.5" stroke-width="4" stroke-miterlimit="10" stroke-linecap="round" stroke-linejoin="round"/>
<defs>
<linearGradient id="paint0_linear_4125_80080" x1="32.05" y1="124.516" x2="180.823" y2="124.516" gradientUnits="userSpaceOnUse">
<stop stop-color="#E8E0E3"/>
<stop offset="0.8065" stop-color="#C5EEFF"/>
</linearGradient>
<linearGradient id="paint1_linear_4125_80080" x1="42.4377" y1="66.654" x2="155.798" y2="180.015" gradientUnits="userSpaceOnUse">
<stop stop-color="#1697D7"/>
<stop offset="1" stop-color="#4ADECE"/>
</linearGradient>
<linearGradient id="paint2_linear_4125_80080" x1="109.139" y1="87.8169" x2="90.8348" y2="167.134" gradientUnits="userSpaceOnUse">
<stop stop-color="#F88C57"/>
<stop offset="0.8259" stop-color="#D65B2B"/>
<stop offset="1" stop-color="#CE5021"/>
</linearGradient>
<linearGradient id="paint3_linear_4125_80080" x1="108.79" y1="177.861" x2="109.054" y2="95.4211" gradientUnits="userSpaceOnUse">
<stop stop-color="#F6DE55"/>
<stop offset="0.3154" stop-color="#F6D355"/>
<stop offset="0.8672" stop-color="#F5B654"/>
<stop offset="1" stop-color="#F5AE54"/>
</linearGradient>
<linearGradient id="paint4_linear_4125_80080" x1="93.7119" y1="228.857" x2="113.023" y2="128.693" gradientUnits="userSpaceOnUse">
<stop stop-color="#F6DE55"/>
<stop offset="0.3154" stop-color="#F6D355"/>
<stop offset="0.8672" stop-color="#F5B654"/>
<stop offset="1" stop-color="#F5AE54"/>
</linearGradient>
<linearGradient id="paint5_linear_4125_80080" x1="109.361" y1="69.4805" x2="106.695" y2="146.322" gradientUnits="userSpaceOnUse">
<stop stop-color="#F6DE55"/>
<stop offset="0.3154" stop-color="#F6D355"/>
<stop offset="0.8672" stop-color="#F5B654"/>
<stop offset="1" stop-color="#F5AE54"/>
</linearGradient>
</defs>
</svg>
