<svg width="128" height="112" viewBox="0 0 128 112" fill="none" xmlns="http://www.w3.org/2000/svg">
<g clip-path="url(#clip0_2305_27745)">
<path d="M54.7859 99.192C38.3969 119.145 16.6209 117.683 16.6209 117.683L9.7959 54.938L54.7859 99.192Z" fill="#E0E0E0"/>
<path d="M28.908 45.1753L-1.27399 81.3493L-3.87402 75.9953L26.31 39.8213L28.908 45.1753Z" fill="#FA9330"/>
<path d="M34.545 56.8125L4.36298 92.9885L1.77002 87.6345L31.954 51.4604L34.545 56.8125Z" fill="#FA9330"/>
<path d="M40.184 68.4473L9.99994 104.621L7.40894 99.2693L37.5909 63.0933L40.184 68.4473Z" fill="#FA9330"/>
<path d="M45.8219 80.0903L15.6379 116.266L13.0469 110.912L43.2259 74.7363L45.8219 80.0903Z" fill="#FA9330"/>
<path d="M51.459 91.7251L21.277 127.899L18.6841 122.545L48.868 86.3711L51.459 91.7251Z" fill="#FA9330"/>
<path d="M57.0971 103.366L26.9131 139.542L24.3191 134.188L54.5011 98.0122L57.0971 103.366Z" fill="#FA9330"/>
<path d="M13.2539 46.0991C13.8552 47.3406 14.0749 48.7325 13.8851 50.0988C13.6954 51.4651 13.1049 52.7445 12.1881 53.7752C11.2713 54.8059 10.0695 55.5416 8.73463 55.8894C7.39975 56.2371 5.99172 56.1812 4.68861 55.7287C3.3855 55.2763 2.24582 54.4476 1.41365 53.3474C0.581474 52.2473 0.0942226 50.9251 0.01344 49.548C-0.0673426 48.171 0.261957 46.8009 0.95979 45.611C1.65762 44.4211 2.69264 43.4649 3.93391 42.8632C4.75832 42.4635 5.65335 42.2302 6.56794 42.1765C7.48254 42.1229 8.39875 42.2499 9.26423 42.5504C10.1297 42.8509 10.9275 43.319 11.6121 43.9279C12.2966 44.5368 12.8546 45.2746 13.2539 46.0991V46.0991Z" fill="#FA4A0C"/>
<path d="M61.3111 73.816L74.6281 73.832L74.6171 81.8231L74.5941 101.295V103.625C74.6095 103.933 74.5492 104.24 74.4185 104.519C74.2877 104.798 74.0905 105.04 73.8441 105.225C73.2845 105.618 72.6109 105.814 71.9281 105.784L63.9391 105.774C63.2562 105.802 62.5832 105.604 62.0251 105.209C61.7789 105.024 61.5821 104.781 61.452 104.502C61.3219 104.223 61.2625 103.917 61.2791 103.609V101.279L61.3021 81.8071L61.3121 73.816H41.3181V73.79H40.3491V89.7771H41.3181L41.2961 109.597C41.2961 110.707 41.7411 111.088 42.8521 111.089L93.2021 111.145C94.3121 111.145 94.5591 110.772 94.5601 109.662L94.5821 89.847H95.4181V73.8601L86.8791 73.8491H80.2841C80.5191 73.8491 80.7491 73.8391 80.9771 73.8251L61.3111 73.816Z" fill="#5B3D80"/>
<path d="M74.6279 74.5459H61.2749V111.08H74.6279V74.5459Z" fill="#B57BFF"/>
<path opacity="0.1" d="M94.5809 89.77H41.3179V91.059H94.5809V89.77Z" fill="#231F20"/>
<path opacity="0.1" d="M76.3058 73.7891C76.0811 73.8524 75.8484 73.8834 75.6149 73.8811H70.6619L70.7299 73.7952H65.4199L65.4819 73.8741H60.5038C60.2996 73.8745 60.0962 73.85 59.8979 73.8011H55.2878C55.5727 74.421 55.967 74.9843 56.4518 75.4641C56.9754 76.005 57.6043 76.4328 58.2997 76.7211C58.9951 77.0093 59.7422 77.152 60.4949 77.1401H76.0339C77.4056 77.0628 78.6982 76.4732 79.6559 75.4882C80.1499 75.0009 80.5508 74.4275 80.8389 73.7961L76.3058 73.7891Z" fill="#231F20"/>
<path d="M63.9689 75.9321H76.0359C77.5125 75.825 78.89 75.1492 79.8785 74.0471C80.8671 72.945 81.3897 71.5025 81.3363 70.0229C81.2829 68.5434 80.6577 67.1423 79.5924 66.1143C78.527 65.0863 77.1044 64.5116 75.6239 64.5111C74.8045 64.4742 73.988 64.6327 73.2419 64.9735C72.4959 65.3143 71.8415 65.8276 71.3329 66.4711L68.0589 70.6791L64.7969 66.4631C64.2903 65.8178 63.6374 65.3023 62.8921 64.9593C62.1468 64.6164 61.3306 64.4559 60.5109 64.4911C58.9944 64.4892 57.5393 65.0899 56.4656 66.1609C55.392 67.232 54.7877 68.6856 54.7859 70.2021C54.784 71.7186 55.3847 73.1737 56.4557 74.2474C57.5267 75.321 58.9804 75.9253 60.4969 75.9271L63.9689 75.9321ZM73.8579 68.5661C74.0714 68.3085 74.3412 68.1035 74.6465 67.9669C74.9519 67.8303 75.2846 67.7657 75.6189 67.7781C76.2687 67.7781 76.8919 68.0363 77.3513 68.4957C77.8108 68.9552 78.0689 69.5783 78.0689 70.2281C78.0689 70.8779 77.8108 71.501 77.3513 71.9605C76.8919 72.42 76.2687 72.6781 75.6189 72.6781H70.6659L73.8579 68.5661ZM58.7669 71.9431C58.4219 71.6005 58.1867 71.163 58.0914 70.6863C57.996 70.2095 58.0447 69.7152 58.2314 69.2662C58.418 68.8173 58.7342 68.4341 59.1394 68.1655C59.5447 67.8969 60.0207 67.7551 60.5069 67.7581C60.8421 67.7476 61.1753 67.8142 61.4806 67.9529C61.7859 68.0916 62.0553 68.2987 62.2679 68.5581L65.4799 72.6711H60.5059C60.1817 72.6755 59.8601 72.6132 59.5609 72.4881C59.2618 72.3631 58.9915 72.1779 58.7669 71.9441V71.9431Z" fill="#B57BFF"/>
<path d="M116.755 111.145H100.026V78.129C100.026 74.014 104.505 67.457 104.505 67.457H111.677C111.677 67.457 116.755 73.379 116.755 78.129V111.145Z" fill="#7F471C"/>
<path d="M108.164 80.8163C109.837 80.8163 111.193 79.4602 111.193 77.7873C111.193 76.1144 109.837 74.7583 108.164 74.7583C106.491 74.7583 105.135 76.1144 105.135 77.7873C105.135 79.4602 106.491 80.8163 108.164 80.8163Z" fill="#FEC79C"/>
<path d="M111.677 67.3202H104.505L106.024 46.0542H110.011L111.677 67.3202Z" fill="#FFE3CD"/>
<path d="M110.806 42.1631H105.375V46.0541H110.806V42.1631Z" fill="#FEC79C"/>
<path d="M116.469 87.8311H100.313V105.9H116.469V87.8311Z" fill="#FFE3CD"/>
<path opacity="0.1" d="M116.755 78.1313C116.578 75.8096 115.828 73.5681 114.57 71.6084C114.641 71.9294 114.7 72.2494 114.751 72.5744C116.105 81.0534 116.96 89.3904 114.466 97.6564C113.667 99.8835 112.615 102.011 111.331 103.998C109.838 106.813 107.493 109.082 104.631 110.482C104.189 110.7 103.747 110.92 103.304 111.144H116.754L116.755 78.1313Z" fill="#231F20"/>
<path d="M108.977 0.744141L108.25 13.8501L107.523 0.744141C107.522 0.556976 107.593 0.376508 107.721 0.240097C107.849 0.103687 108.025 0.0217941 108.212 0.0113834C108.398 0.000972612 108.582 0.0628424 108.725 0.184174C108.867 0.305505 108.958 0.477001 108.977 0.663147C108.979 0.69012 108.979 0.717168 108.977 0.744141V0.744141Z" fill="#FA4A0C"/>
<path d="M108.977 38.65L108.25 25.5439L107.523 38.65C107.513 38.7482 107.522 38.8474 107.552 38.9417C107.581 39.0361 107.629 39.1235 107.693 39.1986C107.757 39.2738 107.836 39.3352 107.924 39.3791C108.012 39.423 108.109 39.4484 108.207 39.4539C108.306 39.4594 108.405 39.4448 108.498 39.411C108.59 39.3773 108.675 39.325 108.747 39.2574C108.819 39.1897 108.877 39.1082 108.916 39.0178C108.956 38.9273 108.976 38.8297 108.977 38.731C108.978 38.704 108.978 38.6769 108.977 38.65V38.65Z" fill="#FA4A0C"/>
<path d="M122.158 6.80902L112.371 15.564L121.124 5.77602C121.187 5.70204 121.265 5.64143 121.352 5.59775C121.438 5.55407 121.533 5.52821 121.63 5.52167C121.727 5.51513 121.825 5.52806 121.917 5.55969C122.009 5.59133 122.093 5.64103 122.166 5.70587C122.238 5.77072 122.297 5.8494 122.339 5.9373C122.381 6.0252 122.404 6.12055 122.409 6.21773C122.413 6.31491 122.398 6.41197 122.364 6.50321C122.33 6.59444 122.279 6.67802 122.212 6.74903L122.158 6.80902Z" fill="#FA4A0C"/>
<path d="M95.3551 33.6142L104.109 23.8262L94.321 32.5792C94.2496 32.6429 94.1915 32.7202 94.1499 32.8064C94.1083 32.8926 94.084 32.9862 94.0786 33.0818C94.0731 33.1774 94.0866 33.2732 94.1181 33.3636C94.1497 33.454 94.1988 33.5372 94.2625 33.6087C94.3263 33.6801 94.4035 33.7383 94.4897 33.7799C94.5759 33.8215 94.6696 33.8457 94.7652 33.8511C94.8608 33.8566 94.9566 33.8431 95.047 33.8116C95.1374 33.78 95.2206 33.7309 95.2921 33.6672C95.3142 33.6509 95.3352 33.6332 95.3551 33.6142V33.6142Z" fill="#FA4A0C"/>
<path d="M127.196 20.4234L114.09 19.6974L127.196 18.9704C127.389 18.9596 127.578 19.0259 127.722 19.1545C127.866 19.2832 127.952 19.4637 127.963 19.6564C127.974 19.8491 127.908 20.0381 127.779 20.1819C127.65 20.3258 127.47 20.4126 127.277 20.4234C127.25 20.4249 127.223 20.4249 127.196 20.4234Z" fill="#FA4A0C"/>
<path d="M89.2891 20.4234L102.395 19.6974L89.2891 18.9704C89.0964 18.9596 88.9074 19.0259 88.7636 19.1545C88.6197 19.2832 88.5329 19.4637 88.5221 19.6564C88.5114 19.8491 88.5776 20.0381 88.7062 20.1819C88.8349 20.3258 89.0155 20.4126 89.2082 20.4234C89.2351 20.4249 89.2621 20.4249 89.2891 20.4234V20.4234Z" fill="#FA4A0C"/>
<path d="M121.27 33.4811L112.415 23.7881L122.285 32.4481C122.415 32.579 122.491 32.7545 122.497 32.9391C122.502 33.1238 122.437 33.3036 122.315 33.4421C122.193 33.5806 122.023 33.6674 121.839 33.6848C121.655 33.7023 121.471 33.6491 121.325 33.5361C121.303 33.5217 121.284 33.503 121.27 33.4811V33.4811Z" fill="#FA4A0C"/>
<path d="M94.197 6.95198L104.067 15.606L95.2111 5.91297C95.0781 5.78187 94.8999 5.70681 94.7132 5.70326C94.5265 5.69971 94.3454 5.76794 94.2075 5.89389C94.0697 6.01983 93.9854 6.1939 93.9721 6.38017C93.9588 6.56643 94.0174 6.75069 94.136 6.89497C94.1551 6.91523 94.1755 6.93428 94.197 6.95198V6.95198Z" fill="#FA4A0C"/>
<path d="M112.05 7.49325L109.272 15.8822L111.104 7.22825C111.136 7.10673 111.214 7.00214 111.321 6.93607C111.428 6.87001 111.556 6.84748 111.679 6.87312C111.802 6.89875 111.911 6.97061 111.982 7.07389C112.054 7.17717 112.083 7.304 112.064 7.42825L112.05 7.49325Z" fill="#FA4A0C"/>
<path d="M105.383 32.151L107.215 23.499L104.437 31.899C104.415 31.9627 104.407 32.0301 104.412 32.0971C104.417 32.1642 104.436 32.2295 104.468 32.2889C104.499 32.3483 104.543 32.4006 104.595 32.4425C104.648 32.4844 104.709 32.5151 104.774 32.5326C104.839 32.5501 104.906 32.5541 104.973 32.5443C105.04 32.5344 105.103 32.5111 105.16 32.4756C105.218 32.4401 105.267 32.3932 105.305 32.3379C105.343 32.2826 105.37 32.22 105.383 32.154V32.151Z" fill="#FA4A0C"/>
<path d="M119.562 13.7621L111.662 17.7361L119.074 12.9201C119.128 12.882 119.189 12.8552 119.254 12.8412C119.318 12.8272 119.385 12.8264 119.45 12.8388C119.515 12.8512 119.576 12.8766 119.631 12.9133C119.686 12.9501 119.733 12.9976 119.769 13.0529C119.805 13.1082 119.829 13.1702 119.841 13.2352C119.852 13.3002 119.851 13.3669 119.836 13.4312C119.821 13.4956 119.794 13.5562 119.755 13.6097C119.716 13.6631 119.667 13.7081 119.61 13.7421L119.562 13.7621Z" fill="#FA4A0C"/>
<path d="M97.413 26.481L104.827 21.665L96.927 25.639C96.8186 25.7017 96.7383 25.8035 96.7025 25.9235C96.6666 26.0434 96.6779 26.1726 96.7341 26.2845C96.7903 26.3963 96.8871 26.4825 97.0047 26.5254C97.1224 26.5683 97.252 26.5646 97.367 26.515C97.3834 26.5052 97.3988 26.4938 97.413 26.481V26.481Z" fill="#FA4A0C"/>
<path d="M120.442 23.5051L112.053 20.7271L120.707 22.5601C120.829 22.5922 120.933 22.6697 120.999 22.7767C121.065 22.8836 121.088 23.0118 121.062 23.1349C121.037 23.2579 120.965 23.3665 120.862 23.4381C120.758 23.5098 120.631 23.5391 120.507 23.5201L120.442 23.5051Z" fill="#FA4A0C"/>
<path d="M95.7881 16.836L104.44 18.669L96.0501 15.89C95.9889 15.8696 95.9242 15.8614 95.8599 15.866C95.7955 15.8705 95.7328 15.8877 95.6751 15.9165C95.6173 15.9454 95.5658 15.9853 95.5236 16.034C95.4813 16.0828 95.449 16.1393 95.4286 16.2005C95.4082 16.2617 95.4 16.3263 95.4045 16.3907C95.4091 16.455 95.4262 16.5179 95.4551 16.5756C95.4839 16.6333 95.5239 16.6847 95.5726 16.727C95.6214 16.7693 95.6779 16.8016 95.7391 16.822C95.755 16.8281 95.7714 16.8328 95.7881 16.836V16.836Z" fill="#FA4A0C"/>
<path d="M114.293 30.9541L110.24 23.0991L115.14 30.4631C115.203 30.5714 115.223 30.6998 115.194 30.822C115.166 30.9441 115.092 31.0508 114.988 31.1202C114.883 31.1895 114.756 31.2162 114.632 31.1948C114.509 31.1734 114.398 31.1056 114.323 31.0051C114.313 30.9887 114.305 30.9717 114.297 30.9541H114.293Z" fill="#FA4A0C"/>
<path d="M101.349 8.93926L106.249 16.3033L102.196 8.44326C102.164 8.38657 102.121 8.33686 102.069 8.29703C102.017 8.25721 101.958 8.22807 101.895 8.21131C101.832 8.19455 101.767 8.19052 101.702 8.19944C101.637 8.20836 101.575 8.23005 101.519 8.26325C101.463 8.29646 101.414 8.34052 101.375 8.39284C101.336 8.44517 101.308 8.50471 101.292 8.56802C101.277 8.63132 101.274 8.6971 101.284 8.76153C101.294 8.82595 101.317 8.88773 101.351 8.94326L101.349 8.93926Z" fill="#FA4A0C"/>
<path d="M81.3448 10.8473L80.7838 20.9582L80.2228 10.8473C80.2171 10.7 80.2693 10.5565 80.3684 10.4474C80.4674 10.3383 80.6053 10.2725 80.7524 10.2641C80.8995 10.2557 81.0439 10.3054 81.1547 10.4025C81.2655 10.4996 81.3338 10.6363 81.3448 10.7833C81.3463 10.8046 81.3463 10.8259 81.3448 10.8473Z" fill="#FA9330"/>
<path d="M81.345 40.09L80.7839 29.978L80.22 40.09C80.2141 40.1647 80.2232 40.2397 80.2468 40.3108C80.2704 40.3819 80.308 40.4475 80.3573 40.5038C80.4066 40.5602 80.4666 40.6061 80.5339 40.6389C80.6012 40.6717 80.6745 40.6908 80.7493 40.6949C80.824 40.699 80.8989 40.6882 80.9694 40.663C81.0399 40.6378 81.1046 40.5988 81.1598 40.5482C81.215 40.4976 81.2596 40.4365 81.2909 40.3685C81.3222 40.3005 81.3395 40.2269 81.3419 40.152C81.3445 40.1315 81.3456 40.1107 81.345 40.09Z" fill="#FA9330"/>
<path d="M91.5209 15.5272L83.9749 22.2802L90.7279 14.7332C90.8289 14.6286 90.9664 14.5672 91.1117 14.5619C91.257 14.5566 91.3986 14.6078 91.507 14.7047C91.6153 14.8017 91.6818 14.9368 91.6926 15.0818C91.7034 15.2267 91.6577 15.3703 91.5649 15.4822L91.5209 15.5272Z" fill="#FA9330"/>
<path d="M70.8408 36.2062L77.5948 28.6592L70.0488 35.4122C69.9906 35.4604 69.9427 35.5199 69.908 35.5871C69.8734 35.6542 69.8526 35.7277 69.847 35.8031C69.8414 35.8785 69.8511 35.9542 69.8754 36.0258C69.8998 36.0974 69.9383 36.1633 69.9887 36.2196C70.0391 36.2759 70.1003 36.3215 70.1688 36.3536C70.2372 36.3857 70.3114 36.4037 70.3869 36.4065C70.4625 36.4092 70.5379 36.3967 70.6085 36.3697C70.6791 36.3427 70.7434 36.3017 70.7978 36.2492L70.8408 36.2062Z" fill="#FA9330"/>
<path d="M95.407 26.0314L85.2949 25.4704L95.407 24.9094C95.4816 24.9036 95.5566 24.9127 95.6277 24.9363C95.6987 24.9599 95.7645 24.9975 95.8208 25.0468C95.8771 25.0961 95.923 25.1562 95.9558 25.2235C95.9886 25.2908 96.0077 25.364 96.0118 25.4387C96.016 25.5135 96.0051 25.5883 95.9799 25.6588C95.9547 25.7293 95.9157 25.7941 95.8651 25.8493C95.8145 25.9045 95.7535 25.9491 95.6854 25.9803C95.6174 26.0116 95.5438 26.029 95.469 26.0314H95.407Z" fill="#FA9330"/>
<path d="M66.1609 26.0314L76.2729 25.4704L66.1609 24.9094C66.0862 24.9036 66.0112 24.9127 65.9402 24.9363C65.8691 24.9599 65.8034 24.9975 65.7471 25.0468C65.6907 25.0961 65.6449 25.1562 65.6121 25.2235C65.5793 25.2908 65.5602 25.364 65.556 25.4387C65.5519 25.5135 65.5628 25.5883 65.588 25.6588C65.6132 25.7293 65.6522 25.7941 65.7028 25.8493C65.7533 25.9045 65.8144 25.9491 65.8824 25.9803C65.9505 26.0116 66.024 26.029 66.0989 26.0314H66.1609Z" fill="#FA9330"/>
<path d="M90.8361 36.1045L84 28.6274L91.613 35.3075C91.725 35.4057 91.7932 35.5444 91.8029 35.693C91.8125 35.8416 91.7628 35.988 91.6646 36.0999C91.5663 36.2119 91.4276 36.2802 91.2789 36.2898C91.1303 36.2995 90.984 36.2497 90.8721 36.1515C90.8594 36.1368 90.8474 36.1211 90.8361 36.1045Z" fill="#FA9330"/>
<path d="M69.9519 15.6413L77.5649 22.3213L70.729 14.8443C70.6793 14.7898 70.6193 14.7456 70.5525 14.7143C70.4857 14.683 70.4134 14.6651 70.3397 14.6617C70.266 14.6583 70.1924 14.6695 70.123 14.6946C70.0537 14.7196 69.9899 14.7581 69.9354 14.8078C69.8809 14.8575 69.8367 14.9175 69.8054 14.9843C69.7741 15.051 69.7562 15.1233 69.7528 15.197C69.7494 15.2707 69.7606 15.3443 69.7856 15.4137C69.8107 15.4831 69.8492 15.5468 69.8989 15.6013C69.9158 15.6156 69.9335 15.629 69.9519 15.6413Z" fill="#FA9330"/>
<path d="M83.7219 16.0571L81.5779 22.5351L82.9918 15.8551C83.0165 15.761 83.0764 15.6801 83.1591 15.6289C83.2417 15.5778 83.3409 15.5604 83.436 15.5803C83.5312 15.6002 83.615 15.6559 83.6703 15.7359C83.7255 15.8159 83.748 15.914 83.7329 16.0101C83.7301 16.0259 83.7265 16.0416 83.7219 16.0571V16.0571Z" fill="#FA9330"/>
<path d="M78.5779 35.0785L79.9918 28.3984L77.8479 34.8765C77.8299 34.9243 77.8217 34.9752 77.8238 35.0262C77.826 35.0772 77.8384 35.1273 77.8604 35.1734C77.8824 35.2195 77.9136 35.2607 77.9519 35.2944C77.9902 35.3282 78.0349 35.3539 78.0833 35.37C78.1318 35.386 78.1831 35.3921 78.234 35.3878C78.2849 35.3836 78.3345 35.3691 78.3796 35.3452C78.4248 35.3214 78.4646 35.2886 78.4968 35.249C78.529 35.2093 78.5528 35.1635 78.5669 35.1144C78.5713 35.1027 78.5749 35.0907 78.5779 35.0785V35.0785Z" fill="#FA9330"/>
<path d="M89.5199 20.8904L83.4199 23.9574L89.1399 20.2364C89.1814 20.2057 89.2289 20.1838 89.2792 20.172C89.3295 20.1603 89.3816 20.159 89.4325 20.1681C89.4833 20.1773 89.5318 20.1967 89.5748 20.2253C89.6179 20.2539 89.6547 20.2909 89.6829 20.3342C89.7111 20.3775 89.7302 20.4261 89.7389 20.4771C89.7476 20.528 89.7458 20.5802 89.7336 20.6304C89.7215 20.6806 89.6992 20.7278 89.6681 20.7691C89.637 20.8104 89.5979 20.8448 89.553 20.8704C89.5426 20.8781 89.5315 20.8848 89.5199 20.8904V20.8904Z" fill="#FA9330"/>
<path d="M72.4278 30.7124L78.1478 26.9834L72.0478 30.0484C71.9614 30.0954 71.8968 30.1742 71.8674 30.268C71.838 30.3619 71.8463 30.4635 71.8905 30.5513C71.9346 30.6392 72.0111 30.7065 72.104 30.739C72.1968 30.7715 72.2986 30.7666 72.3879 30.7254L72.4278 30.7124Z" fill="#FA9330"/>
<path d="M90.198 28.4062L83.719 26.2642L90.3989 27.6762C90.4494 27.6845 90.4978 27.7029 90.541 27.7304C90.5842 27.7579 90.6214 27.7938 90.6503 27.8361C90.6792 27.8783 90.6992 27.926 90.7092 27.9762C90.7192 28.0264 90.7189 28.0781 90.7084 28.1282C90.6978 28.1783 90.6773 28.2258 90.6479 28.2677C90.6186 28.3096 90.581 28.3452 90.5375 28.3722C90.494 28.3992 90.4454 28.4171 90.3948 28.4248C90.3442 28.4325 90.2925 28.43 90.2429 28.4172L90.198 28.4062Z" fill="#FA9330"/>
<path d="M71.1749 23.2623L77.8548 24.6763L71.3798 22.5343C71.2846 22.5028 71.1808 22.5103 71.0911 22.5553C71.0015 22.6004 70.9333 22.6791 70.9018 22.7743C70.8702 22.8696 70.8778 22.9734 70.9228 23.063C70.9678 23.1527 71.0467 23.2208 71.1419 23.2523L71.1749 23.2623Z" fill="#FA9330"/>
<path d="M85.452 34.1542L82.325 28.0952L86.103 33.7782C86.1521 33.8618 86.1672 33.9611 86.1454 34.0556C86.1235 34.15 86.0663 34.2325 85.9855 34.2861C85.9046 34.3397 85.8063 34.3602 85.7108 34.3434C85.6153 34.3267 85.5299 34.274 85.472 34.1962L85.452 34.1542Z" fill="#FA9330"/>
<path d="M75.4659 17.1675L79.244 22.8485L76.1169 16.7895C76.069 16.7034 75.9896 16.6393 75.8952 16.6109C75.8009 16.5824 75.6992 16.5918 75.6117 16.6371C75.5242 16.6823 75.4577 16.7599 75.4264 16.8533C75.3951 16.9467 75.4014 17.0486 75.444 17.1375C75.4506 17.148 75.4579 17.158 75.4659 17.1675V17.1675Z" fill="#FA9330"/>
<path d="M101.679 71.1224V58.0684H83.5991V71.1234C83.5991 71.1234 83.599 80.2154 91.999 80.6594V107.641H92.0731C90.6811 109.363 85.9921 111.141 85.9921 111.141H99.2791C99.2791 111.141 94.508 109.058 93.353 107.641C93.3252 107.641 93.2975 107.638 93.27 107.634V80.6594C101.671 80.2194 101.679 71.1224 101.679 71.1224Z" fill="white"/>
<path d="M93.1371 64.0172C91.0961 65.7702 87.8881 65.6722 85.0371 66.2072V70.8462C85.0371 70.8462 85.0371 78.8842 92.6371 78.8842C100.237 78.8842 100.237 70.8462 100.237 70.8462V61.7292C97.6668 61.5713 95.1315 62.3883 93.1371 64.0172V64.0172Z" fill="#FFE3CD"/>
</g>
<defs>
<clipPath id="clip0_2305_27745">
<rect width="127.964" height="117.706" fill="white"/>
</clipPath>
</defs>
</svg>
