<svg width="1440" height="1024" viewBox="0 0 1440 1024" fill="none" xmlns="http://www.w3.org/2000/svg">
<g clip-path="url(#clip0_2264_27577)">
<rect width="1440" height="1024" fill="#110066"/>
<g clip-path="url(#clip1_2264_27577)">
<path d="M302 524.919C301.999 526.504 302.311 528.074 302.918 529.539C303.524 531.003 304.413 532.334 305.534 533.455C306.655 534.576 307.986 535.465 309.451 536.072C310.916 536.678 312.486 536.99 314.071 536.99H583.251C586.452 536.99 589.523 535.718 591.786 533.454C594.05 531.19 595.322 528.12 595.322 524.919C595.322 521.717 594.05 518.647 591.786 516.383C589.523 514.119 586.452 512.848 583.251 512.848H314.071C312.486 512.847 310.916 513.159 309.451 513.765C307.986 514.372 306.655 515.261 305.534 516.382C304.413 517.503 303.524 518.834 302.918 520.299C302.311 521.763 301.999 523.333 302 524.919Z" fill="#B57BFF"/>
<path d="M302 524.919C301.999 526.504 302.311 528.074 302.918 529.539C303.524 531.003 304.413 532.334 305.534 533.455C306.655 534.576 307.986 535.465 309.451 536.072C310.916 536.678 312.486 536.99 314.071 536.99H583.251C586.452 536.99 589.523 535.718 591.786 533.454C594.05 531.19 595.322 528.12 595.322 524.919C595.322 521.717 594.05 518.647 591.786 516.383C589.523 514.119 586.452 512.848 583.251 512.848H314.071C312.486 512.847 310.916 513.159 309.451 513.765C307.986 514.372 306.655 515.261 305.534 516.382C304.413 517.503 303.524 518.834 302.918 520.299C302.311 521.763 301.999 523.333 302 524.919Z" fill="black" fill-opacity="0.5"/>
<path d="M826.305 557.979C826.305 559.564 826.616 561.134 827.223 562.599C827.829 564.064 828.718 565.394 829.839 566.515C830.96 567.636 832.291 568.526 833.756 569.132C835.221 569.738 836.791 570.05 838.376 570.05H1107.56C1110.76 570.05 1113.83 568.778 1116.09 566.514C1118.36 564.251 1119.63 561.18 1119.63 557.979C1119.63 554.777 1118.36 551.706 1116.09 549.442C1113.83 547.178 1110.76 545.905 1107.56 545.905H838.376C835.175 545.905 832.104 547.177 829.841 549.44C827.577 551.704 826.305 554.774 826.305 557.976V557.979Z" fill="#B57BFF"/>
<path d="M826.305 557.979C826.305 559.564 826.616 561.134 827.223 562.599C827.829 564.064 828.718 565.394 829.839 566.515C830.96 567.636 832.291 568.526 833.756 569.132C835.221 569.738 836.791 570.05 838.376 570.05H1107.56C1110.76 570.05 1113.83 568.778 1116.09 566.514C1118.36 564.251 1119.63 561.18 1119.63 557.979C1119.63 554.777 1118.36 551.706 1116.09 549.442C1113.83 547.178 1110.76 545.905 1107.56 545.905H838.376C835.175 545.905 832.104 547.177 829.841 549.44C827.577 551.704 826.305 554.774 826.305 557.976V557.979Z" fill="black" fill-opacity="0.5"/>
<path d="M465.682 490.947C465.681 492.533 465.992 494.103 466.598 495.569C467.205 497.034 468.094 498.366 469.215 499.487C470.336 500.609 471.667 501.499 473.132 502.106C474.597 502.713 476.167 503.026 477.753 503.026H746.934C748.519 503.026 750.089 502.714 751.554 502.107C753.019 501.5 754.35 500.61 755.47 499.489C756.591 498.368 757.48 497.037 758.087 495.572C758.693 494.107 759.005 492.537 759.005 490.952C759.005 487.75 757.733 484.68 755.469 482.416C753.206 480.153 750.135 478.881 746.934 478.881H477.753C474.552 478.881 471.483 480.152 469.219 482.415C466.956 484.677 465.683 487.746 465.682 490.947Z" fill="#B57BFF"/>
<path d="M465.682 490.947C465.681 492.533 465.992 494.103 466.598 495.569C467.205 497.034 468.094 498.366 469.215 499.487C470.336 500.609 471.667 501.499 473.132 502.106C474.597 502.713 476.167 503.026 477.753 503.026H746.934C748.519 503.026 750.089 502.714 751.554 502.107C753.019 501.5 754.35 500.61 755.47 499.489C756.591 498.368 757.48 497.037 758.087 495.572C758.693 494.107 759.005 492.537 759.005 490.952C759.005 487.75 757.733 484.68 755.469 482.416C753.206 480.153 750.135 478.881 746.934 478.881H477.753C474.552 478.881 471.483 480.152 469.219 482.415C466.956 484.677 465.683 487.746 465.682 490.947Z" fill="black" fill-opacity="0.5"/>
<path d="M369.422 490.947C369.421 492.534 369.734 494.105 370.341 495.571C370.948 497.038 371.838 498.37 372.961 499.492C374.083 500.613 375.416 501.503 376.882 502.109C378.349 502.716 379.92 503.027 381.507 503.026H414.17C417.372 503.025 420.442 501.753 422.706 499.488C424.969 497.224 426.241 494.154 426.241 490.952C426.24 487.751 424.968 484.681 422.705 482.417C420.441 480.154 417.371 478.882 414.17 478.881H381.507C378.306 478.882 375.236 480.154 372.973 482.417C370.709 484.681 369.437 487.751 369.436 490.952L369.422 490.947Z" fill="#B57BFF"/>
<path d="M369.422 490.947C369.421 492.534 369.734 494.105 370.341 495.571C370.948 497.038 371.838 498.37 372.961 499.492C374.083 500.613 375.416 501.503 376.882 502.109C378.349 502.716 379.92 503.027 381.507 503.026H414.17C417.372 503.025 420.442 501.753 422.706 499.488C424.969 497.224 426.241 494.154 426.241 490.952C426.24 487.751 424.968 484.681 422.705 482.417C420.441 480.154 417.371 478.882 414.17 478.881H381.507C378.306 478.882 375.236 480.154 372.973 482.417C370.709 484.681 369.437 487.751 369.436 490.952L369.422 490.947Z" fill="black" fill-opacity="0.5"/>
<path d="M392.717 626.413C392.717 627.998 393.029 629.568 393.636 631.032C394.243 632.497 395.132 633.827 396.253 634.948C397.373 636.069 398.704 636.958 400.169 637.565C401.633 638.172 403.203 638.484 404.788 638.484H437.447C439.033 638.484 440.603 638.172 442.067 637.566C443.532 636.959 444.863 636.07 445.984 634.949C447.106 633.828 447.995 632.498 448.602 631.033C449.209 629.568 449.521 627.998 449.521 626.413C449.52 623.211 448.248 620.141 445.984 617.877C443.719 615.614 440.649 614.342 437.447 614.342H404.788C401.587 614.343 398.517 615.615 396.253 617.878C393.99 620.142 392.718 623.212 392.717 626.413Z" fill="#B57BFF"/>
<path d="M392.717 626.413C392.717 627.998 393.029 629.568 393.636 631.032C394.243 632.497 395.132 633.827 396.253 634.948C397.373 636.069 398.704 636.958 400.169 637.565C401.633 638.172 403.203 638.484 404.788 638.484H437.447C439.033 638.484 440.603 638.172 442.067 637.566C443.532 636.959 444.863 636.07 445.984 634.949C447.106 633.828 447.995 632.498 448.602 631.033C449.209 629.568 449.521 627.998 449.521 626.413C449.52 623.211 448.248 620.141 445.984 617.877C443.719 615.614 440.649 614.342 437.447 614.342H404.788C401.587 614.343 398.517 615.615 396.253 617.878C393.99 620.142 392.718 623.212 392.717 626.413Z" fill="black" fill-opacity="0.5"/>
<path d="M1055.82 590.319C1055.82 591.904 1055.51 593.474 1054.9 594.939C1054.3 596.404 1053.41 597.735 1052.29 598.856C1051.16 599.977 1049.83 600.866 1048.37 601.472C1046.9 602.079 1045.33 602.391 1043.75 602.39H774.569C772.984 602.391 771.414 602.079 769.949 601.472C768.484 600.866 767.153 599.977 766.032 598.856C764.911 597.735 764.022 596.404 763.416 594.939C762.809 593.474 762.498 591.904 762.498 590.319C762.498 588.734 762.809 587.164 763.416 585.699C764.022 584.234 764.911 582.903 766.032 581.782C767.153 580.661 768.484 579.772 769.949 579.166C771.414 578.559 772.984 578.248 774.569 578.248H1043.75C1045.34 578.248 1046.91 578.56 1048.37 579.166C1049.83 579.773 1051.17 580.662 1052.29 581.783C1053.41 582.904 1054.3 584.235 1054.9 585.699C1055.51 587.164 1055.82 588.734 1055.82 590.319Z" fill="#B57BFF"/>
<path d="M1055.82 590.319C1055.82 591.904 1055.51 593.474 1054.9 594.939C1054.3 596.404 1053.41 597.735 1052.29 598.856C1051.16 599.977 1049.83 600.866 1048.37 601.472C1046.9 602.079 1045.33 602.391 1043.75 602.39H774.569C772.984 602.391 771.414 602.079 769.949 601.472C768.484 600.866 767.153 599.977 766.032 598.856C764.911 597.735 764.022 596.404 763.416 594.939C762.809 593.474 762.498 591.904 762.498 590.319C762.498 588.734 762.809 587.164 763.416 585.699C764.022 584.234 764.911 582.903 766.032 581.782C767.153 580.661 768.484 579.772 769.949 579.166C771.414 578.559 772.984 578.248 774.569 578.248H1043.75C1045.34 578.248 1046.91 578.56 1048.37 579.166C1049.83 579.773 1051.17 580.662 1052.29 581.783C1053.41 582.904 1054.3 584.235 1054.9 585.699C1055.51 587.164 1055.82 588.734 1055.82 590.319Z" fill="black" fill-opacity="0.5"/>
<path d="M1137.02 592.183C1137.02 593.768 1136.71 595.339 1136.1 596.803C1135.49 598.268 1134.6 599.599 1133.48 600.721C1132.36 601.842 1131.03 602.731 1129.57 603.338C1128.1 603.945 1126.53 604.257 1124.95 604.257H1092.29C1090.7 604.257 1089.13 603.945 1087.67 603.338C1086.2 602.731 1084.87 601.842 1083.75 600.72C1082.63 599.599 1081.74 598.268 1081.13 596.803C1080.53 595.338 1080.21 593.768 1080.21 592.183C1080.21 590.597 1080.52 589.027 1081.13 587.562C1081.74 586.097 1082.63 584.766 1083.75 583.644C1084.87 582.523 1086.2 581.634 1087.66 581.027C1089.13 580.42 1090.7 580.108 1092.29 580.109H1124.94C1128.15 580.108 1131.22 581.379 1133.48 583.642C1135.74 585.905 1137.02 588.975 1137.02 592.176L1137.02 592.183Z" fill="#B57BFF"/>
<path d="M1137.02 592.183C1137.02 593.768 1136.71 595.339 1136.1 596.803C1135.49 598.268 1134.6 599.599 1133.48 600.721C1132.36 601.842 1131.03 602.731 1129.57 603.338C1128.1 603.945 1126.53 604.257 1124.95 604.257H1092.29C1090.7 604.257 1089.13 603.945 1087.67 603.338C1086.2 602.731 1084.87 601.842 1083.75 600.72C1082.63 599.599 1081.74 598.268 1081.13 596.803C1080.53 595.338 1080.21 593.768 1080.21 592.183C1080.21 590.597 1080.52 589.027 1081.13 587.562C1081.74 586.097 1082.63 584.766 1083.75 583.644C1084.87 582.523 1086.2 581.634 1087.66 581.027C1089.13 580.42 1090.7 580.108 1092.29 580.109H1124.94C1128.15 580.108 1131.22 581.379 1133.48 583.642C1135.74 585.905 1137.02 588.975 1137.02 592.176L1137.02 592.183Z" fill="black" fill-opacity="0.5"/>
<path d="M421.989 533.194C421.99 537.218 420.797 541.153 418.561 544.5C416.325 547.847 413.147 550.455 409.429 551.996C405.711 553.537 401.619 553.94 397.672 553.155C393.724 552.37 390.098 550.432 387.252 547.586C384.406 544.74 382.467 541.115 381.682 537.167C380.897 533.22 381.3 529.128 382.84 525.409C384.38 521.691 386.989 518.513 390.335 516.277C393.682 514.041 397.616 512.847 401.641 512.848C407.037 512.848 412.212 514.992 416.028 518.807C419.844 522.623 421.988 527.798 421.989 533.194Z" fill="#B57BFF"/>
<path d="M421.989 533.194C421.99 537.218 420.797 541.153 418.561 544.5C416.325 547.847 413.147 550.455 409.429 551.996C405.711 553.537 401.619 553.94 397.672 553.155C393.724 552.37 390.098 550.432 387.252 547.586C384.406 544.74 382.467 541.115 381.682 537.167C380.897 533.22 381.3 529.128 382.84 525.409C384.38 521.691 386.989 518.513 390.335 516.277C393.682 514.041 397.616 512.847 401.641 512.848C407.037 512.848 412.212 514.992 416.028 518.807C419.844 522.623 421.988 527.798 421.989 533.194Z" fill="black" fill-opacity="0.5"/>
<path d="M439.169 477.129C439.17 482.542 437.565 487.834 434.558 492.336C431.551 496.837 427.276 500.345 422.275 502.417C417.274 504.489 411.77 505.032 406.461 503.976C401.151 502.92 396.274 500.314 392.446 496.486C388.618 492.658 386.011 487.781 384.955 482.472C383.899 477.162 384.441 471.659 386.512 466.658C388.584 461.656 392.092 457.382 396.593 454.374C401.095 451.367 406.387 449.762 411.8 449.762C419.058 449.762 426.019 452.646 431.151 457.778C436.284 462.91 439.168 469.87 439.169 477.129Z" fill="#B57BFF"/>
<path d="M439.169 477.129C439.17 482.542 437.565 487.834 434.558 492.336C431.551 496.837 427.276 500.345 422.275 502.417C417.274 504.489 411.77 505.032 406.461 503.976C401.151 502.92 396.274 500.314 392.446 496.486C388.618 492.658 386.011 487.781 384.955 482.472C383.899 477.162 384.441 471.659 386.512 466.658C388.584 461.656 392.092 457.382 396.593 454.374C401.095 451.367 406.387 449.762 411.8 449.762C419.058 449.762 426.019 452.646 431.151 457.778C436.284 462.91 439.168 469.87 439.169 477.129Z" fill="black" fill-opacity="0.5"/>
<path d="M851.234 426.846C851.233 430.047 849.961 433.116 847.697 435.379C845.433 437.642 842.364 438.914 839.163 438.915H806.504C804.919 438.915 803.349 438.603 801.884 437.996C800.419 437.389 799.088 436.5 797.967 435.379C796.846 434.257 795.957 432.926 795.351 431.461C794.744 429.996 794.433 428.426 794.433 426.841C794.433 423.64 795.705 420.569 797.969 418.306C800.232 416.042 803.303 414.77 806.504 414.77H839.163C842.365 414.771 845.436 416.044 847.699 418.308C849.963 420.573 851.235 423.644 851.234 426.846Z" fill="#B57BFF"/>
<path d="M851.234 426.846C851.233 430.047 849.961 433.116 847.697 435.379C845.433 437.642 842.364 438.914 839.163 438.915H806.504C804.919 438.915 803.349 438.603 801.884 437.996C800.419 437.389 799.088 436.5 797.967 435.379C796.846 434.257 795.957 432.926 795.351 431.461C794.744 429.996 794.433 428.426 794.433 426.841C794.433 423.64 795.705 420.569 797.969 418.306C800.232 416.042 803.303 414.77 806.504 414.77H839.163C842.365 414.771 845.436 416.044 847.699 418.308C849.963 420.573 851.235 423.644 851.234 426.846Z" fill="black" fill-opacity="0.5"/>
<path d="M781.49 413.024C781.49 418.437 783.095 423.728 786.102 428.229C789.109 432.729 793.383 436.237 798.383 438.309C803.384 440.381 808.887 440.924 814.196 439.869C819.505 438.813 824.381 436.208 828.21 432.381C832.038 428.555 834.645 423.679 835.703 418.37C836.76 413.062 836.22 407.559 834.15 402.557C832.08 397.556 828.573 393.281 824.074 390.272C819.574 387.263 814.284 385.656 808.871 385.654C805.276 385.652 801.716 386.359 798.394 387.734C795.072 389.109 792.053 391.125 789.51 393.666C786.968 396.208 784.951 399.226 783.574 402.547C782.198 405.869 781.49 409.429 781.49 413.024Z" fill="#B57BFF"/>
<path d="M781.49 413.024C781.49 418.437 783.095 423.728 786.102 428.229C789.109 432.729 793.383 436.237 798.383 438.309C803.384 440.381 808.887 440.924 814.196 439.869C819.505 438.813 824.381 436.208 828.21 432.381C832.038 428.555 834.645 423.679 835.703 418.37C836.76 413.062 836.22 407.559 834.15 402.557C832.08 397.556 828.573 393.281 824.074 390.272C819.574 387.263 814.284 385.656 808.871 385.654C805.276 385.652 801.716 386.359 798.394 387.734C795.072 389.109 792.053 391.125 789.51 393.666C786.968 396.208 784.951 399.226 783.574 402.547C782.198 405.869 781.49 409.429 781.49 413.024Z" fill="black" fill-opacity="0.5"/>
<path d="M1095.28 549.703C1095.28 553.728 1094.08 557.662 1091.85 561.008C1089.61 564.355 1086.43 566.963 1082.71 568.503C1079 570.043 1074.9 570.446 1070.96 569.661C1067.01 568.876 1063.38 566.938 1060.54 564.092C1057.69 561.246 1055.75 557.62 1054.97 553.672C1054.18 549.725 1054.59 545.633 1056.13 541.915C1057.67 538.197 1060.28 535.019 1063.62 532.783C1066.97 530.547 1070.9 529.354 1074.93 529.354C1080.32 529.354 1085.5 531.498 1089.32 535.314C1093.13 539.131 1095.28 544.306 1095.28 549.703Z" fill="#B57BFF"/>
<path d="M1095.28 549.703C1095.28 553.728 1094.08 557.662 1091.85 561.008C1089.61 564.355 1086.43 566.963 1082.71 568.503C1079 570.043 1074.9 570.446 1070.96 569.661C1067.01 568.876 1063.38 566.938 1060.54 564.092C1057.69 561.246 1055.75 557.62 1054.97 553.672C1054.18 549.725 1054.59 545.633 1056.13 541.915C1057.67 538.197 1060.28 535.019 1063.62 532.783C1066.97 530.547 1070.9 529.354 1074.93 529.354C1080.32 529.354 1085.5 531.498 1089.32 535.314C1093.13 539.131 1095.28 544.306 1095.28 549.703Z" fill="black" fill-opacity="0.5"/>
<path d="M1064.8 536.196C1064.8 542.883 1062.82 549.42 1059.1 554.98C1055.39 560.541 1050.11 564.875 1043.93 567.434C1037.75 569.994 1030.95 570.664 1024.39 569.359C1017.83 568.055 1011.81 564.835 1007.08 560.107C1002.35 555.378 999.132 549.354 997.828 542.795C996.523 536.237 997.193 529.438 999.752 523.26C1002.31 517.082 1006.64 511.802 1012.2 508.086C1017.76 504.371 1024.3 502.388 1030.99 502.389C1039.96 502.389 1048.55 505.951 1054.89 512.291C1061.23 518.631 1064.8 527.229 1064.8 536.196Z" fill="#B57BFF"/>
<path d="M1064.8 536.196C1064.8 542.883 1062.82 549.42 1059.1 554.98C1055.39 560.541 1050.11 564.875 1043.93 567.434C1037.75 569.994 1030.95 570.664 1024.39 569.359C1017.83 568.055 1011.81 564.835 1007.08 560.107C1002.35 555.378 999.132 549.354 997.828 542.795C996.523 536.237 997.193 529.438 999.752 523.26C1002.31 517.082 1006.64 511.802 1012.2 508.086C1017.76 504.371 1024.3 502.388 1030.99 502.389C1039.96 502.389 1048.55 505.951 1054.89 512.291C1061.23 518.631 1064.8 527.229 1064.8 536.196Z" fill="black" fill-opacity="0.5"/>
<path d="M958.107 567.294C986.904 566.831 1009.87 543.112 1009.41 514.315C1008.95 485.518 985.229 462.549 956.432 463.011C927.635 463.474 904.666 487.193 905.128 515.99C905.591 544.787 929.31 567.756 958.107 567.294Z" fill="#B57BFF"/>
<path d="M958.107 567.294C986.904 566.831 1009.87 543.112 1009.41 514.315C1008.95 485.518 985.229 462.549 956.432 463.011C927.635 463.474 904.666 487.193 905.128 515.99C905.591 544.787 929.31 567.756 958.107 567.294Z" fill="black" fill-opacity="0.5"/>
<path d="M903.479 556.352C927.65 532.18 927.65 492.991 903.479 468.82C879.308 444.649 840.119 444.649 815.948 468.82C791.777 492.991 791.777 532.18 815.948 556.352C840.119 580.523 879.308 580.523 903.479 556.352Z" fill="#B57BFF"/>
<path d="M903.479 556.352C927.65 532.18 927.65 492.991 903.479 468.82C879.308 444.649 840.119 444.649 815.948 468.82C791.777 492.991 791.777 532.18 815.948 556.352C840.119 580.523 879.308 580.523 903.479 556.352Z" fill="black" fill-opacity="0.5"/>
<path d="M1018.28 612.055C1018.28 618.741 1016.3 625.278 1012.59 630.837C1008.87 636.397 1003.59 640.73 997.414 643.289C991.237 645.847 984.439 646.517 977.881 645.212C971.323 643.908 965.3 640.688 960.572 635.96C955.844 631.232 952.624 625.208 951.32 618.65C950.015 612.093 950.685 605.295 953.243 599.118C955.802 592.94 960.135 587.66 965.695 583.946C971.254 580.231 977.79 578.248 984.477 578.248C993.443 578.248 1002.04 581.81 1008.38 588.15C1014.72 594.49 1018.28 603.089 1018.28 612.055Z" fill="#B57BFF"/>
<path d="M1018.28 612.055C1018.28 618.741 1016.3 625.278 1012.59 630.837C1008.87 636.397 1003.59 640.73 997.414 643.289C991.237 645.847 984.439 646.517 977.881 645.212C971.323 643.908 965.3 640.688 960.572 635.96C955.844 631.232 952.624 625.208 951.32 618.65C950.015 612.093 950.685 605.295 953.243 599.118C955.802 592.94 960.135 587.66 965.695 583.946C971.254 580.231 977.79 578.248 984.477 578.248C993.443 578.248 1002.04 581.81 1008.38 588.15C1014.72 594.49 1018.28 603.089 1018.28 612.055Z" fill="black" fill-opacity="0.5"/>
<path d="M476.951 553.543C476.951 560.23 474.968 566.767 471.253 572.327C467.538 577.887 462.257 582.22 456.079 584.779C449.901 587.338 443.103 588.008 436.545 586.703C429.986 585.399 423.962 582.178 419.233 577.45C414.505 572.721 411.285 566.697 409.981 560.138C408.676 553.58 409.346 546.782 411.905 540.604C414.464 534.426 418.798 529.145 424.358 525.43C429.918 521.715 436.455 519.733 443.142 519.733C452.109 519.733 460.708 523.295 467.049 529.636C473.389 535.977 476.951 544.576 476.951 553.543Z" fill="#B57BFF"/>
<path d="M476.951 553.543C476.951 560.23 474.968 566.767 471.253 572.327C467.538 577.887 462.257 582.22 456.079 584.779C449.901 587.338 443.103 588.008 436.545 586.703C429.986 585.399 423.962 582.178 419.233 577.45C414.505 572.721 411.285 566.697 409.981 560.138C408.676 553.58 409.346 546.782 411.905 540.604C414.464 534.426 418.798 529.145 424.358 525.43C429.918 521.715 436.455 519.733 443.142 519.733C452.109 519.733 460.708 523.295 467.049 529.636C473.389 535.977 476.951 544.576 476.951 553.543Z" fill="black" fill-opacity="0.5"/>
<path d="M584.345 593.351C586.926 559.355 561.458 529.705 527.462 527.125C493.466 524.545 463.816 550.012 461.236 584.008C458.655 618.004 484.123 647.655 518.119 650.235C552.115 652.815 581.765 627.347 584.345 593.351Z" fill="#B57BFF"/>
<path d="M584.345 593.351C586.926 559.355 561.458 529.705 527.462 527.125C493.466 524.545 463.816 550.012 461.236 584.008C458.655 618.004 484.123 647.655 518.119 650.235C552.115 652.815 581.765 627.347 584.345 593.351Z" fill="black" fill-opacity="0.5"/>
<path d="M588.688 449.755C588.688 459.023 585.939 468.084 580.79 475.79C575.641 483.497 568.322 489.503 559.759 493.05C551.196 496.597 541.773 497.525 532.682 495.717C523.592 493.909 515.242 489.446 508.688 482.892C502.134 476.338 497.671 467.988 495.862 458.897C494.054 449.807 494.982 440.384 498.529 431.821C502.076 423.258 508.083 415.939 515.789 410.789C523.496 405.64 532.556 402.892 541.825 402.892C554.254 402.892 566.174 407.829 574.962 416.617C583.751 425.406 588.688 437.326 588.688 449.755Z" fill="#B57BFF"/>
<path d="M588.688 449.755C588.688 459.023 585.939 468.084 580.79 475.79C575.641 483.497 568.322 489.503 559.759 493.05C551.196 496.597 541.773 497.525 532.682 495.717C523.592 493.909 515.242 489.446 508.688 482.892C502.134 476.338 497.671 467.988 495.862 458.897C494.054 449.807 494.982 440.384 498.529 431.821C502.076 423.258 508.083 415.939 515.789 410.789C523.496 405.64 532.556 402.892 541.825 402.892C554.254 402.892 566.174 407.829 574.962 416.617C583.751 425.406 588.688 437.326 588.688 449.755Z" fill="black" fill-opacity="0.5"/>
<path d="M681.018 440.237C683.791 406.44 658.64 376.794 624.843 374.021C591.046 371.249 561.4 396.399 558.627 430.196C555.855 463.993 581.005 493.639 614.802 496.412C648.6 499.185 678.245 474.034 681.018 440.237Z" fill="#B57BFF"/>
<path d="M681.018 440.237C683.791 406.44 658.64 376.794 624.843 374.021C591.046 371.249 561.4 396.399 558.627 430.196C555.855 463.993 581.005 493.639 614.802 496.412C648.6 499.185 678.245 474.034 681.018 440.237Z" fill="black" fill-opacity="0.5"/>
<path d="M519.221 474.72C519.222 479.051 517.939 483.286 515.533 486.888C513.127 490.491 509.707 493.298 505.706 494.957C501.704 496.615 497.301 497.05 493.052 496.206C488.804 495.361 484.901 493.276 481.837 490.213C478.774 487.151 476.688 483.249 475.842 479C474.997 474.752 475.43 470.348 477.087 466.346C478.745 462.344 481.552 458.924 485.153 456.517C488.755 454.11 492.989 452.826 497.321 452.826C503.128 452.826 508.698 455.132 512.804 459.238C516.911 463.344 519.219 468.913 519.221 474.72Z" fill="#B57BFF"/>
<path d="M519.221 474.72C519.222 479.051 517.939 483.286 515.533 486.888C513.127 490.491 509.707 493.298 505.706 494.957C501.704 496.615 497.301 497.05 493.052 496.206C488.804 495.361 484.901 493.276 481.837 490.213C478.774 487.151 476.688 483.249 475.842 479C474.997 474.752 475.43 470.348 477.087 466.346C478.745 462.344 481.552 458.924 485.153 456.517C488.755 454.11 492.989 452.826 497.321 452.826C503.128 452.826 508.698 455.132 512.804 459.238C516.911 463.344 519.219 468.913 519.221 474.72Z" fill="black" fill-opacity="0.5"/>
<path fill-rule="evenodd" clip-rule="evenodd" d="M558.71 374.71C560.719 373.129 561.506 370.448 560.67 368.032C559.833 365.615 557.557 363.995 555 363.995C552.443 363.995 550.167 365.615 549.33 368.032C548.493 370.448 549.28 373.129 551.29 374.71C547.867 376.081 545.476 379.225 545.07 382.89C545.009 383.442 545.408 383.939 545.96 384C546.512 384.061 547.009 383.662 547.07 383.11C547.524 379.063 550.947 376.003 555.02 376.003C559.093 376.003 562.515 379.063 562.97 383.11C563.026 383.619 563.458 384.003 563.97 384H564.08C564.625 383.937 565.018 383.446 564.96 382.9C564.551 379.224 562.147 376.074 558.71 374.71ZM555 374C552.791 374 551 372.209 551 370C551 367.791 552.791 366 555 366C557.209 366 559 367.791 559 370C559 371.061 558.578 372.078 557.828 372.829C557.078 373.579 556.061 374 555 374Z" fill="#60646A"/>
</g>
<g clip-path="url(#clip2_2264_27577)">
<path d="M1382.79 466.785C1379.81 464.192 1380.76 463.754 1380.76 463.754L1378.04 464.021C1377.97 464.9 1379.33 468.015 1378.12 471.161C1376.41 475.58 1377.92 477.467 1378.93 478.005C1380.76 478.998 1380.36 475.37 1385.41 473.816C1388.88 472.745 1389.16 472.288 1382.79 466.785Z" fill="#F26973"/>
<path d="M1382.69 384.505C1404.43 406.896 1404.98 441.645 1383.86 462.153C1362.74 482.661 1327.98 481.144 1306.25 458.755C1284.52 436.365 1283.95 401.609 1305.08 381.092C1326.22 360.575 1360.91 362.126 1382.69 384.505Z" fill="#FA9330"/>
<path opacity="0.1" d="M1339.36 366.705C1353.81 367.675 1367.38 373.99 1377.42 384.418C1399.18 406.8 1399.71 441.558 1378.59 462.07C1369.35 470.976 1357.1 476.095 1344.27 476.415C1351.49 476.932 1358.75 475.925 1365.56 473.459C1372.38 470.993 1378.6 467.124 1383.82 462.101C1404.92 441.605 1404.38 406.847 1382.65 384.447C1377.07 378.642 1370.33 374.066 1362.88 371.011C1355.43 367.956 1347.42 366.489 1339.36 366.705V366.705Z" fill="#F286B6"/>
<path d="M1337.85 566.774C1335.37 561.625 1334.45 562.801 1334.45 562.801L1335.84 559.14C1337.09 559.375 1340.88 562.439 1345.7 561.948C1352.46 561.256 1354.56 564.028 1354.85 565.658C1355.52 568.601 1350.67 566.65 1346.62 573.031C1343.8 577.46 1343.1 577.678 1337.85 566.774Z" fill="#F494BE"/>
<path d="M1223.76 535.603C1246.54 574.189 1294.49 588.073 1330.89 566.639C1367.29 545.204 1378.3 496.502 1355.51 457.895C1332.72 419.287 1284.78 405.414 1248.38 426.859C1211.98 448.304 1200.98 497.013 1223.76 535.603Z" fill="#FD8E39"/>
<path d="M1223.76 535.603C1246.54 574.189 1294.49 588.073 1330.89 566.639C1367.29 545.204 1378.3 496.502 1355.51 457.895C1332.72 419.287 1284.78 405.414 1248.38 426.859C1211.98 448.304 1200.98 497.013 1223.76 535.603Z" fill="white" fill-opacity="0.5"/>
<path opacity="0.1" d="M1301.12 418.398C1320.96 424.624 1337.76 438.019 1348.24 455.967C1371.02 494.57 1359.99 543.243 1323.61 564.718C1307.72 574.027 1288.91 577.043 1270.9 573.171C1280.81 576.343 1291.27 577.397 1301.61 576.264C1311.96 575.132 1321.95 571.838 1330.93 566.596C1367.31 545.129 1378.34 496.458 1355.55 457.85C1349.73 447.846 1341.88 439.169 1332.51 432.375C1323.13 425.581 1312.44 420.82 1301.12 418.398V418.398Z" fill="#F38CB9"/>
<g opacity="0.3">
<path opacity="0.3" d="M1226.37 491.739C1223.34 491.123 1220.21 491.387 1219.23 494.406C1217.44 499.853 1219.15 504.728 1225.29 505.33C1228.62 505.658 1232.68 504.433 1233.97 501.124C1235.11 498.188 1234.49 495.004 1231.55 493.553C1229.91 492.74 1228.17 492.131 1226.37 491.739Z" fill="white"/>
</g>
<path d="M1449.48 459.361C1448.22 454.856 1449.44 455.01 1449.44 455.01L1446.55 453.492C1445.92 454.322 1445.24 458.32 1441.95 460.654C1437.35 463.924 1437.63 466.829 1438.27 467.989C1439.45 470.207 1441.42 466.318 1447.46 468.074C1451.64 469.288 1452.19 469.014 1449.48 459.361Z" fill="white"/>
<path d="M1503.44 377.391C1510.41 413.961 1488.09 448.892 1453.65 455.54C1419.21 462.188 1385.56 437.781 1378.6 401.206C1371.63 364.631 1393.92 329.655 1428.38 323.055C1462.85 316.455 1496.44 340.783 1503.44 377.391Z" fill="white"/>
<path opacity="0.1" d="M1471.96 331.208C1485.71 341.652 1495.08 356.85 1498.21 373.829C1505.19 410.402 1482.87 445.332 1448.43 451.978C1433.38 454.799 1417.82 451.879 1404.82 443.793C1411.68 449.055 1419.57 452.816 1427.97 454.834C1436.38 456.852 1445.12 457.08 1453.62 455.505C1488.11 448.936 1510.43 413.94 1503.41 377.354C1501.68 367.895 1497.98 358.904 1492.57 350.957C1487.15 343.01 1480.13 336.283 1471.96 331.208V331.208Z" fill="#F6AFCE"/>
<path d="M1501.38 432.812C1512.15 468.281 1493.79 505.254 1460.33 515.37C1426.88 525.486 1391.05 505.004 1380.28 469.544C1369.51 434.085 1387.87 397.096 1421.32 386.986C1454.78 376.876 1490.63 397.351 1501.38 432.812Z" fill="#FEC79C"/>
<path opacity="0.1" d="M1465.39 390.468C1480.11 399.348 1490.99 413.394 1495.9 429.862C1506.67 465.321 1488.31 502.312 1454.85 512.42C1440.25 516.807 1424.55 515.568 1410.82 508.945C1418.17 513.426 1426.38 516.313 1434.91 517.418C1443.45 518.524 1452.12 517.823 1460.37 515.362C1493.78 505.225 1512.17 468.234 1501.41 432.804C1498.69 423.628 1494.08 415.122 1487.88 407.831C1481.67 400.541 1474.01 394.627 1465.39 390.468V390.468Z" fill="#F38CB9"/>
<g opacity="0.3">
<path opacity="0.3" d="M1421.96 391.156C1421.19 391.155 1420.42 391.199 1419.72 391.268C1414.14 391.741 1409.18 394.85 1404.73 398.005C1399.87 401.201 1395.85 405.509 1392.99 410.573C1391.29 413.54 1390 416.723 1389.15 420.036C1388.03 424.61 1388.49 431.791 1393.31 434.363C1394.7 435.042 1396.26 435.306 1397.8 435.124C1399.34 434.941 1400.8 434.32 1402 433.334C1404.79 431.293 1405.29 428.713 1406.23 425.579C1406.79 423.69 1407.24 421.759 1407.98 419.942C1409.75 415.653 1413.31 413.232 1417.36 411.263C1421.2 409.459 1425.54 408.07 1428.34 404.685C1430.48 402.073 1431.97 397.895 1430.22 394.707C1428.63 391.846 1425.12 391.159 1421.96 391.156Z" fill="white"/>
</g>
<g opacity="0.3">
<path opacity="0.3" d="M1390.98 434.835C1388.66 433.752 1386.09 433.356 1384.71 435.576C1382.21 439.599 1382.65 443.855 1387.43 445.561C1390.05 446.473 1393.56 446.278 1395.23 443.864C1396.03 442.928 1396.43 441.717 1396.34 440.492C1396.25 439.267 1395.69 438.125 1394.77 437.31C1393.61 436.333 1392.34 435.5 1390.98 434.831L1390.98 434.835Z" fill="white"/>
</g>
<path d="M1469.16 736.005L1468.68 736.263C1445.69 688.135 1439.33 659.12 1438.11 643.217C1436.71 625.968 1440.81 620.155 1440.98 619.911L1441.42 620.243C1441.42 620.243 1437.29 626.176 1438.67 643.312C1439.92 659.115 1446.25 688.054 1469.16 736.005Z" fill="#FDEAF2"/>
<path d="M1482.31 748.861L1481.83 749.119C1448.3 673.698 1400.27 630.429 1399.8 630.001L1400.16 629.589C1400.6 630.002 1448.74 673.329 1482.31 748.861Z" fill="#FDEAF2"/>
<path d="M1468.98 738.383L1468.44 738.45C1463.81 698.971 1396.36 599.431 1395.68 598.421L1396.16 598.164C1396.8 599.104 1464.29 698.779 1468.98 738.383Z" fill="#FDEAF2"/>
<path d="M1477.83 743.012L1477.34 743.27C1476.91 742.444 1434.82 659.131 1410.1 660.026C1385.13 660.964 1354.74 638.34 1354.48 638.091L1354.81 637.644C1355.1 637.877 1385.35 660.384 1410.12 659.449C1420.65 659.032 1435.27 673 1453.54 700.91C1462.34 714.528 1470.45 728.58 1477.83 743.014L1477.83 743.012Z" fill="#FDEAF2"/>
<path d="M1473.89 738.361C1453.91 704.854 1439.4 668.374 1430.92 630.298C1425 602.851 1425.18 585.429 1425.17 585.271L1425.71 585.28C1425.71 585.449 1425.55 602.819 1431.46 630.19C1439.94 668.203 1454.44 704.62 1474.39 738.069L1473.89 738.361Z" fill="#FDEAF2"/>
<path d="M1474.92 740.638L1474.44 740.894C1456.32 695.296 1421.17 647.581 1394.91 615.571C1366.42 580.91 1341.91 556.715 1341.66 556.469L1342.05 556.083C1342.3 556.324 1366.82 580.528 1395.33 615.219C1421.57 647.197 1456.77 694.964 1474.92 740.638Z" fill="#FDEAF2"/>
<path d="M1469.67 727.221C1445.61 686.818 1432.55 629.445 1425.81 588.455C1421.43 561.927 1418.45 535.187 1416.88 508.345L1417.44 508.321C1418.98 535.143 1421.96 561.863 1426.34 588.37C1433.06 629.329 1446.11 686.615 1470.1 726.95L1469.67 727.221Z" fill="#FDEAF2"/>
<path d="M1401.05 566.841C1398.95 563.588 1399.96 563.427 1399.96 563.427L1397.32 562.939C1397.02 563.746 1397.46 567.058 1395.44 569.686C1392.62 573.385 1393.53 575.583 1394.33 576.359C1395.81 577.807 1396.4 574.276 1401.6 574.193C1405.17 574.131 1405.53 573.786 1401.05 566.841Z" fill="#F26973"/>
<path d="M1423.53 489.185C1437.92 516.271 1428.89 549.214 1403.36 562.771C1377.82 576.328 1345.47 565.36 1331.08 538.274C1316.69 511.189 1325.73 478.28 1351.26 464.724C1376.79 451.168 1409.15 462.11 1423.53 489.185Z" fill="#FA9330"/>
<path opacity="0.1" d="M1387.55 460.524C1400.92 465.393 1411.98 475.073 1418.58 487.67C1432.98 514.755 1423.95 547.693 1398.42 561.249C1387.27 567.128 1374.31 568.618 1362.12 565.423C1368.8 567.896 1375.92 568.936 1383.03 568.476C1390.14 568.016 1397.07 566.066 1403.38 562.753C1428.91 549.197 1437.95 516.253 1423.56 489.167C1419.89 482.147 1414.79 475.972 1408.59 471.039C1402.38 466.106 1395.22 462.524 1387.55 460.524Z" fill="#F286B6"/>
<g opacity="0.3">
<path opacity="0.3" d="M1352.4 467.991C1351.78 468.111 1351.16 468.259 1350.6 468.426C1346.12 469.727 1342.63 473.02 1339.51 476.28C1336.07 479.644 1333.49 483.784 1331.98 488.352C1331.06 491.03 1330.52 493.82 1330.35 496.646C1330.18 500.541 1331.68 506.289 1336.01 507.621C1337.25 507.95 1338.56 507.916 1339.78 507.522C1341 507.128 1342.08 506.392 1342.9 505.4C1344.86 503.279 1344.84 501.123 1345.1 498.434C1345.26 496.811 1345.31 495.18 1345.63 493.579C1346.37 489.821 1348.87 487.253 1351.89 485.083C1354.67 483.022 1358.02 481.193 1359.76 477.994C1361.06 475.562 1361.68 471.878 1359.7 469.597C1357.93 467.485 1354.98 467.485 1352.4 467.991Z" fill="white"/>
</g>
<g opacity="0.3">
<path opacity="0.3" d="M1334.19 508.371C1332.15 507.855 1330.02 507.999 1329.22 509.975C1327.84 513.646 1328.86 517.033 1333.04 517.635C1335.3 517.957 1338.13 517.235 1339.11 515.018C1339.61 514.13 1339.73 513.083 1339.47 512.101C1339.2 511.118 1338.56 510.279 1337.69 509.762C1336.58 509.156 1335.41 508.689 1334.19 508.371Z" fill="white"/>
</g>
<path d="M1364.43 649.046C1362.46 645.489 1361.82 646.348 1361.82 646.348L1362.68 643.664C1363.58 643.785 1366.42 645.829 1369.86 645.285C1374.64 644.543 1376.27 646.445 1376.59 647.582C1377.16 649.68 1373.62 648.456 1370.93 653.169C1369.12 656.485 1368.63 656.655 1364.43 649.046Z" fill="white"/>
<path d="M1281.31 631.204C1299.19 658.006 1334.16 666.067 1359.42 649.204C1384.68 632.341 1390.67 596.986 1372.78 570.187C1354.9 543.389 1319.93 535.339 1294.67 552.189C1269.42 569.039 1263.42 604.424 1281.31 631.204Z" fill="white"/>
<path opacity="0.1" d="M1332.17 544.023C1346.65 547.706 1359.24 556.653 1367.48 569.116C1385.36 595.917 1379.4 631.314 1354.12 648.133C1343.09 655.454 1329.71 658.368 1316.63 656.299C1323.86 658.18 1331.41 658.521 1338.78 657.3C1346.15 656.078 1353.19 653.322 1359.42 649.21C1384.68 632.36 1390.66 597.001 1372.78 570.193C1368.21 563.245 1362.23 557.329 1355.24 552.822C1348.25 548.316 1340.39 545.319 1332.17 544.023V544.023Z" fill="#F6AFCE"/>
<g opacity="0.3">
<path opacity="0.3" d="M1296.26 555.497C1295.62 555.696 1295 555.917 1294.43 556.15C1289.91 557.942 1286.57 561.783 1283.66 565.53C1280.42 569.407 1278.16 573.999 1277.05 578.924C1276.39 581.821 1276.11 584.795 1276.23 587.765C1276.46 591.846 1278.63 597.699 1283.3 598.636C1284.63 598.849 1286 598.676 1287.23 598.137C1288.47 597.597 1289.52 596.715 1290.27 595.594C1292.09 593.179 1291.83 590.887 1291.84 588.074C1291.76 586.349 1291.76 584.62 1291.86 582.894C1292.24 578.888 1294.62 575.92 1297.47 573.332C1300.22 570.853 1303.47 568.608 1304.95 565.086C1306.09 562.381 1306.26 558.53 1304 556.329C1301.94 554.409 1298.85 554.719 1296.26 555.497Z" fill="white"/>
</g>
<g opacity="0.3">
<path opacity="0.3" d="M1281.43 599.637C1279.25 599.311 1277.01 599.631 1276.42 601.829C1275.35 605.807 1276.77 609.234 1281.22 609.437C1283.6 609.539 1286.48 608.492 1287.27 606.066C1287.7 605.079 1287.72 603.967 1287.33 602.965C1286.95 601.963 1286.19 601.148 1285.22 600.692C1284.01 600.19 1282.73 599.836 1281.43 599.637Z" fill="white"/>
</g>
<path d="M1437.27 641.17C1435.49 636.693 1436.76 636.739 1436.76 636.739L1433.66 635.51C1433.09 636.422 1432.84 640.561 1429.75 643.298C1425.42 647.139 1425.99 650.04 1426.8 651.181C1428.27 653.278 1429.82 649.122 1436.17 650.261C1440.55 651.037 1441.09 650.703 1437.27 641.17Z" fill="#F494BE"/>
<path d="M1483.27 551.768C1494.36 588.259 1475.46 626.305 1441.07 636.755C1406.67 647.205 1369.8 626.086 1358.7 589.597C1347.6 553.107 1366.52 515.06 1400.91 504.609C1435.3 494.158 1472.18 515.279 1483.27 551.768Z" fill="#FEC79C"/>
<path opacity="0.1" d="M1446.22 508.194C1461.37 517.331 1472.56 531.79 1477.61 548.74C1488.7 585.225 1469.8 623.27 1435.4 633.713C1420.39 638.231 1404.22 636.953 1390.11 630.131C1397.66 634.733 1406.1 637.696 1414.88 638.827C1423.66 639.959 1432.57 639.233 1441.05 636.698C1475.42 626.203 1494.34 588.195 1483.26 551.711C1480.46 542.279 1475.71 533.537 1469.33 526.044C1462.96 518.55 1455.08 512.471 1446.22 508.194V508.194Z" fill="#F38CB9"/>
<g opacity="0.3">
<path opacity="0.3" d="M1401.54 508.902C1400.74 508.901 1399.96 508.952 1399.23 509.016C1393.48 509.483 1388.39 512.714 1383.8 515.917C1378.79 519.19 1374.64 523.61 1371.69 528.81C1369.93 531.862 1368.6 535.137 1367.73 538.547C1366.59 543.244 1367.05 550.629 1372.01 553.271C1373.45 553.97 1375.05 554.242 1376.64 554.054C1378.22 553.866 1379.72 553.225 1380.95 552.209C1383.85 550.099 1384.35 547.454 1385.31 544.23C1385.89 542.295 1386.35 540.308 1387.11 538.439C1388.92 534.028 1392.58 531.488 1396.76 529.513C1400.71 527.65 1405.18 526.22 1408.05 522.743C1410.26 520.059 1411.79 515.757 1409.99 512.485C1408.39 509.608 1404.76 508.926 1401.54 508.902Z" fill="white"/>
</g>
<g opacity="0.3">
<path opacity="0.3" d="M1369.66 553.842C1367.27 552.722 1364.64 552.306 1363.21 554.604C1360.64 558.748 1361.08 563.13 1366.07 564.853C1368.76 565.794 1372.36 565.588 1374.09 563.108C1374.91 562.145 1375.32 560.898 1375.23 559.636C1375.14 558.374 1374.56 557.198 1373.61 556.361C1372.41 555.359 1371.08 554.513 1369.66 553.842Z" fill="white"/>
</g>
</g>
<g clip-path="url(#clip3_2264_27577)">
<path d="M964.81 0C887.897 34.727 804.474 52.6873 720.085 52.6873C635.696 52.6873 552.273 34.727 475.36 0C474.907 1 474.453 2.00501 473.997 3.01501C551.338 37.9361 635.225 55.9967 720.085 55.9967C804.944 55.9967 888.831 37.9361 966.172 3.01501C965.721 2.00901 965.267 1.004 964.81 0Z" fill="#666666"/>
<path d="M620.599 99.9781C634.132 84.7975 646.832 69.2248 658.699 53.2601C638.445 51.1729 618.31 48.0525 598.374 43.9111C604.887 62.7031 612.296 81.3922 620.599 99.9781Z" fill="#FF7E30"/>
<path d="M551.515 85.395C566.674 71.7884 581.035 57.6964 594.599 43.119C574.581 38.8256 554.797 33.5076 535.324 27.186C539.826 46.5967 545.223 65.9997 551.515 85.395Z" fill="#007FC5"/>
<path d="M691.168 106.996C702.935 90.4278 713.842 73.5639 723.89 56.4039C703.58 56.5337 683.277 55.6292 663.059 53.6938C671.546 71.6585 680.915 89.4258 691.168 106.996Z" fill="#3C98FB"/>
<path d="M762.129 106.278C772.026 88.526 781.039 70.5726 789.166 52.418C768.987 54.7627 748.702 56.0781 728.389 56.359C738.772 73.2903 750.018 89.93 762.129 106.278Z" fill="#B57BFF"/>
<path d="M762.129 106.278C772.026 88.526 781.039 70.5726 789.166 52.418C768.987 54.7627 748.702 56.0781 728.389 56.359C738.772 73.2903 750.018 89.93 762.129 106.278Z" fill="black" fill-opacity="0.25"/>
<path d="M832.481 97.8449C840.419 79.1169 847.459 60.2809 853.602 41.3369C833.738 45.8824 813.654 49.4104 793.43 51.9069C805.613 67.6069 818.63 82.9196 832.481 97.8449Z" fill="#FCEE21"/>
<path d="M900.875 81.9811C906.808 62.4851 911.84 42.9755 915.969 23.4521C896.598 30.1643 876.895 35.8752 856.937 40.5622C870.784 54.8509 885.43 68.6571 900.875 81.9811Z" fill="#885CBF"/>
</g>
<g clip-path="url(#clip4_2264_27577)">
<path d="M177.136 427.195L272.679 379L167.168 420.11L175.699 422.581L177.136 427.195Z" fill="white"/>
<path opacity="0.2" d="M175.699 422.58L272.679 379L177.136 427.195L175.699 422.58Z" fill="#231F20"/>
<path d="M177.136 427.195L272.678 379L186.49 445.733L177.136 427.195Z" fill="white"/>
<path opacity="0.2" d="M177.136 427.195L272.678 379L191.338 441.98L177.136 427.195Z" fill="#231F20"/>
<path d="M177.136 427.195L272.678 379L209.309 445.857L177.136 427.195Z" fill="white"/>
<path d="M89.0921 505.481C99.1921 509.265 108.718 514.672 119.3 517.229C125.7 518.783 131.568 518.262 137.877 516.685C149.461 513.779 163.577 507.859 170.564 497.634C176.664 488.699 171.893 475.77 161.046 473.292C152.562 471.357 147.138 480.392 146.797 487.635C146.097 502.669 164.224 505.21 175.241 501.892C192.878 496.57 193.756 472.368 191.557 457.605C191.176 455.049 187.136 455.274 187.525 457.823C189.584 471.567 189.39 493.439 173.081 498.357C163.113 501.364 148.164 497.681 151.326 484.657C152.103 481.363 154.574 477.757 158.148 477.214C163.33 476.437 167.938 482.093 169.289 486.452C171.037 492.093 166.251 497.392 162.296 500.67C156.982 505.075 150.556 508.137 144.131 510.537C138.331 512.705 131.77 514.737 125.484 514.189C113.208 513.125 102.3 506.14 90.9841 501.913C88.5681 501.013 86.7031 504.601 89.1351 505.513L89.0921 505.481Z" fill="white"/>
</g>
<g clip-path="url(#clip5_2264_27577)">
<path d="M257.898 809.852L262.24 820.266C262.301 820.401 262.332 820.547 262.332 820.695C262.332 820.843 262.301 820.989 262.24 821.124C262.186 821.263 262.104 821.389 261.999 821.495C261.895 821.602 261.77 821.686 261.632 821.742L256.918 823.713C256.781 823.771 256.633 823.801 256.484 823.801C256.336 823.801 256.188 823.771 256.051 823.713C255.912 823.661 255.786 823.581 255.679 823.477C255.573 823.374 255.489 823.25 255.433 823.113L251.091 812.704C251.031 812.568 251 812.421 251 812.273C251 812.124 251.031 811.977 251.091 811.841C251.145 811.702 251.227 811.576 251.332 811.47C251.436 811.363 251.561 811.279 251.699 811.223L256.413 809.252C256.55 809.193 256.697 809.162 256.846 809.162C256.996 809.162 257.143 809.193 257.28 809.252C257.419 809.304 257.545 809.384 257.652 809.487C257.758 809.591 257.842 809.715 257.898 809.852ZM258.747 819.281C258.693 819.144 258.61 819.019 258.504 818.916C258.399 818.812 258.273 818.732 258.134 818.681C257.996 818.618 257.847 818.583 257.695 818.579C257.543 818.575 257.392 818.601 257.251 818.657C257.109 818.712 256.981 818.795 256.872 818.901C256.764 819.007 256.678 819.134 256.619 819.274C256.561 819.414 256.531 819.565 256.531 819.717C256.532 819.868 256.564 820.019 256.624 820.158C256.684 820.297 256.771 820.423 256.881 820.528C256.99 820.633 257.12 820.715 257.262 820.769C257.542 820.88 257.854 820.878 258.131 820.761C258.409 820.645 258.63 820.424 258.747 820.147C258.807 820.009 258.837 819.86 258.835 819.71C258.833 819.56 258.8 819.412 258.737 819.275L258.747 819.281ZM277.317 801.753C277.705 802.639 277.743 803.639 277.425 804.553C277.739 804.886 277.997 805.268 278.189 805.684C278.564 806.471 278.644 807.365 278.415 808.206C278.856 808.745 279.131 809.4 279.207 810.092C279.303 810.731 279.218 811.385 278.962 811.978C279.248 812.468 279.433 813.01 279.506 813.573C279.579 814.136 279.538 814.707 279.386 815.254C279.155 815.862 278.794 816.411 278.327 816.864C277.861 817.317 277.3 817.662 276.686 817.875L276.097 818.12L274.848 818.639L274.57 818.757C273.773 819.081 272.948 819.327 272.104 819.492C271.161 819.681 270.449 819.798 269.917 819.85C269.385 819.902 268.63 819.963 267.668 820.034C266.694 820.049 265.725 820.171 264.778 820.397C264.499 820.512 264.185 820.512 263.906 820.397C263.768 820.347 263.643 820.269 263.537 820.167C263.432 820.066 263.348 819.943 263.293 819.808L258.942 809.38C258.886 809.249 258.857 809.108 258.857 808.965C258.857 808.822 258.886 808.681 258.942 808.55C259.044 808.276 259.246 808.05 259.508 807.918C259.763 807.786 260.045 807.296 260.352 806.438C260.659 805.58 260.946 804.698 261.191 803.779C261.424 802.883 261.704 802 262.03 801.134C262.155 800.819 262.218 800.483 262.214 800.144C262.225 799.84 262.211 799.536 262.172 799.234C262.139 799.012 262.072 798.654 261.983 798.159C261.894 797.664 261.813 797.343 261.776 797.079C261.732 796.754 261.72 796.425 261.738 796.098C261.749 795.74 261.823 795.387 261.959 795.056C262.013 794.917 262.094 794.79 262.199 794.684C262.303 794.578 262.429 794.494 262.567 794.438C263.017 794.24 263.493 794.105 263.981 794.038C264.365 793.978 264.757 793.978 265.141 794.038C265.479 794.097 265.8 794.228 266.084 794.42C266.336 794.585 266.57 794.774 266.784 794.986C266.989 795.211 267.169 795.457 267.321 795.721C267.463 795.947 267.592 796.18 267.707 796.421C267.782 796.581 267.872 796.793 267.98 797.048C268.153 797.467 268.273 797.906 268.338 798.354C268.401 798.717 268.435 799.085 268.438 799.454C268.438 799.737 268.414 800.103 268.367 800.554C268.369 800.675 268.355 800.795 268.325 800.912C268.304 801.056 268.293 801.201 268.292 801.346C268.288 801.494 268.299 801.643 268.325 801.789L272.87 799.903C273.281 799.727 273.723 799.636 274.17 799.636C274.617 799.636 275.059 799.727 275.47 799.903C275.887 800.065 276.267 800.311 276.584 800.627C276.901 800.942 277.149 801.32 277.313 801.737L277.317 801.753Z" fill="#3E3182"/>
</g>
<g clip-path="url(#clip6_2264_27577)">
<path d="M710.786 1011.19C694.397 1031.15 672.621 1029.68 672.621 1029.68L665.796 966.938L710.786 1011.19Z" fill="#E0E0E0"/>
<path d="M684.908 957.175L654.726 993.349L652.126 987.995L682.31 951.821L684.908 957.175Z" fill="#FA9330"/>
<path d="M690.545 968.812L660.363 1004.99L657.77 999.634L687.954 963.46L690.545 968.812Z" fill="#FA9330"/>
<path d="M696.184 980.447L666 1016.62L663.409 1011.27L693.591 975.093L696.184 980.447Z" fill="#FA9330"/>
<path d="M701.822 992.09L671.638 1028.27L669.047 1022.91L699.226 986.736L701.822 992.09Z" fill="#FA9330"/>
<path d="M707.459 1003.73L677.277 1039.9L674.684 1034.55L704.868 998.371L707.459 1003.73Z" fill="#FA9330"/>
<path d="M713.097 1015.37L682.913 1051.54L680.319 1046.19L710.501 1010.01L713.097 1015.37Z" fill="#FA9330"/>
<path d="M669.254 958.099C669.855 959.341 670.075 960.733 669.885 962.099C669.695 963.465 669.105 964.745 668.188 965.775C667.271 966.806 666.07 967.542 664.735 967.889C663.4 968.237 661.992 968.181 660.689 967.729C659.386 967.276 658.246 966.448 657.414 965.347C656.581 964.247 656.094 962.925 656.013 961.548C655.933 960.171 656.262 958.801 656.96 957.611C657.658 956.421 658.693 955.465 659.934 954.863C660.758 954.464 661.653 954.23 662.568 954.177C663.483 954.123 664.399 954.25 665.264 954.55C666.13 954.851 666.928 955.319 667.612 955.928C668.297 956.537 668.855 957.275 669.254 958.099Z" fill="#FA4A0C"/>
<path d="M717.311 985.816L730.628 985.832L730.617 993.823L730.594 1013.3V1015.63C730.61 1015.93 730.549 1016.24 730.418 1016.52C730.288 1016.8 730.09 1017.04 729.844 1017.23C729.285 1017.62 728.611 1017.81 727.928 1017.78L719.939 1017.77C719.256 1017.8 718.583 1017.6 718.025 1017.21C717.779 1017.02 717.582 1016.78 717.452 1016.5C717.322 1016.22 717.263 1015.92 717.279 1015.61V1013.28L717.302 993.807L717.312 985.816H697.318V985.79H696.349V1001.78H697.318L697.296 1021.6C697.296 1022.71 697.741 1023.09 698.852 1023.09L749.202 1023.15C750.312 1023.15 750.559 1022.77 750.56 1021.66L750.582 1001.85H751.418V985.86L742.879 985.849H736.284C736.519 985.849 736.749 985.839 736.977 985.825L717.311 985.816Z" fill="#5B3D80"/>
<path d="M730.628 986.546H717.275V1023.08H730.628V986.546Z" fill="#B57BFF"/>
<path opacity="0.1" d="M750.581 1001.77H697.318V1003.06H750.581V1001.77Z" fill="#231F20"/>
<path opacity="0.1" d="M732.306 985.789C732.081 985.852 731.848 985.883 731.615 985.881H726.662L726.73 985.795H721.42L721.482 985.874H716.504C716.3 985.874 716.096 985.85 715.898 985.801H711.288C711.573 986.421 711.967 986.984 712.452 987.464C712.975 988.005 713.604 988.433 714.3 988.721C714.995 989.009 715.742 989.152 716.495 989.14H732.034C733.406 989.063 734.698 988.473 735.656 987.488C736.15 987.001 736.551 986.427 736.839 985.796L732.306 985.789Z" fill="#231F20"/>
<path d="M719.969 987.932H732.036C733.512 987.825 734.89 987.149 735.879 986.047C736.867 984.945 737.39 983.502 737.336 982.023C737.283 980.543 736.658 979.142 735.592 978.114C734.527 977.086 733.104 976.512 731.624 976.511C730.804 976.474 729.988 976.633 729.242 976.974C728.496 977.314 727.842 977.828 727.333 978.471L724.059 982.679L720.797 978.463C720.29 977.818 719.637 977.302 718.892 976.959C718.147 976.616 717.331 976.456 716.511 976.491C714.994 976.489 713.539 977.09 712.466 978.161C711.392 979.232 710.788 980.686 710.786 982.202C710.784 983.719 711.385 985.174 712.456 986.247C713.527 987.321 714.98 987.925 716.497 987.927L719.969 987.932ZM729.858 980.566C730.071 980.309 730.341 980.104 730.647 979.967C730.952 979.83 731.285 979.766 731.619 979.778C732.269 979.778 732.892 980.036 733.351 980.496C733.811 980.955 734.069 981.578 734.069 982.228C734.069 982.878 733.811 983.501 733.351 983.96C732.892 984.42 732.269 984.678 731.619 984.678H726.666L729.858 980.566ZM714.767 983.943C714.422 983.601 714.187 983.163 714.091 982.686C713.996 982.21 714.045 981.715 714.231 981.266C714.418 980.817 714.734 980.434 715.139 980.166C715.545 979.897 716.021 979.755 716.507 979.758C716.842 979.748 717.175 979.814 717.481 979.953C717.786 980.092 718.055 980.299 718.268 980.558L721.48 984.671H716.506C716.182 984.675 715.86 984.613 715.561 984.488C715.262 984.363 714.992 984.178 714.767 983.944V983.943Z" fill="#B57BFF"/>
<path d="M772.755 1023.15H756.026V990.129C756.026 986.014 760.505 979.457 760.505 979.457H767.677C767.677 979.457 772.755 985.379 772.755 990.129V1023.15Z" fill="#7F471C"/>
<path d="M764.164 992.816C765.837 992.816 767.193 991.46 767.193 989.787C767.193 988.114 765.837 986.758 764.164 986.758C762.491 986.758 761.135 988.114 761.135 989.787C761.135 991.46 762.491 992.816 764.164 992.816Z" fill="#FEC79C"/>
<path d="M767.677 979.32H760.505L762.024 958.054H766.011L767.677 979.32Z" fill="#FFE3CD"/>
<path d="M766.806 954.163H761.375V958.054H766.806V954.163Z" fill="#FEC79C"/>
<path d="M772.469 999.831H756.313V1017.9H772.469V999.831Z" fill="#FFE3CD"/>
<path opacity="0.1" d="M772.755 990.131C772.578 987.81 771.828 985.568 770.57 983.608C770.641 983.929 770.7 984.249 770.751 984.574C772.105 993.053 772.96 1001.39 770.466 1009.66C769.667 1011.88 768.615 1014.01 767.331 1016C765.838 1018.81 763.493 1021.08 760.631 1022.48C760.189 1022.7 759.747 1022.92 759.304 1023.14H772.754L772.755 990.131Z" fill="#231F20"/>
<path d="M764.977 912.744L764.25 925.85L763.523 912.744C763.522 912.557 763.593 912.377 763.721 912.24C763.849 912.104 764.025 912.022 764.212 912.011C764.398 912.001 764.582 912.063 764.725 912.184C764.867 912.306 764.958 912.477 764.977 912.663C764.979 912.69 764.979 912.717 764.977 912.744Z" fill="#FA4A0C"/>
<path d="M764.977 950.65L764.25 937.544L763.523 950.65C763.513 950.748 763.522 950.847 763.552 950.942C763.581 951.036 763.629 951.123 763.693 951.199C763.757 951.274 763.836 951.335 763.924 951.379C764.012 951.423 764.109 951.448 764.207 951.454C764.306 951.459 764.405 951.445 764.498 951.411C764.59 951.377 764.675 951.325 764.747 951.257C764.819 951.19 764.877 951.108 764.916 951.018C764.956 950.927 764.976 950.83 764.977 950.731C764.978 950.704 764.978 950.677 764.977 950.65Z" fill="#FA4A0C"/>
<path d="M778.158 918.809L768.371 927.564L777.124 917.776C777.187 917.702 777.265 917.641 777.352 917.598C777.438 917.554 777.533 917.528 777.63 917.522C777.727 917.515 777.825 917.528 777.917 917.56C778.009 917.591 778.093 917.641 778.166 917.706C778.238 917.771 778.297 917.849 778.339 917.937C778.381 918.025 778.404 918.121 778.409 918.218C778.413 918.315 778.398 918.412 778.364 918.503C778.33 918.594 778.279 918.678 778.212 918.749L778.158 918.809Z" fill="#FA4A0C"/>
<path d="M751.355 945.614L760.109 935.826L750.321 944.579C750.25 944.643 750.191 944.72 750.15 944.806C750.108 944.893 750.084 944.986 750.079 945.082C750.073 945.177 750.087 945.273 750.118 945.364C750.15 945.454 750.199 945.537 750.263 945.609C750.326 945.68 750.403 945.738 750.49 945.78C750.576 945.822 750.67 945.846 750.765 945.851C750.861 945.857 750.957 945.843 751.047 945.812C751.137 945.78 751.221 945.731 751.292 945.667C751.314 945.651 751.335 945.633 751.355 945.614Z" fill="#FA4A0C"/>
<path d="M783.196 932.423L770.09 931.697L783.196 930.97C783.389 930.96 783.578 931.026 783.722 931.155C783.866 931.283 783.952 931.464 783.963 931.656C783.974 931.849 783.908 932.038 783.779 932.182C783.65 932.326 783.47 932.413 783.277 932.423C783.25 932.425 783.223 932.425 783.196 932.423Z" fill="#FA4A0C"/>
<path d="M745.289 932.423L758.395 931.697L745.289 930.97C745.096 930.96 744.907 931.026 744.764 931.155C744.62 931.283 744.533 931.464 744.522 931.656C744.511 931.849 744.578 932.038 744.706 932.182C744.835 932.326 745.015 932.413 745.208 932.423C745.235 932.425 745.262 932.425 745.289 932.423Z" fill="#FA4A0C"/>
<path d="M777.27 945.481L768.415 935.788L778.285 944.448C778.415 944.579 778.491 944.755 778.497 944.939C778.502 945.124 778.437 945.304 778.315 945.442C778.193 945.581 778.023 945.667 777.839 945.685C777.655 945.702 777.471 945.649 777.325 945.536C777.303 945.522 777.284 945.503 777.27 945.481Z" fill="#FA4A0C"/>
<path d="M750.197 918.952L760.067 927.606L751.211 917.913C751.078 917.782 750.9 917.707 750.713 917.703C750.526 917.7 750.345 917.768 750.208 917.894C750.07 918.02 749.985 918.194 749.972 918.38C749.959 918.566 750.017 918.751 750.136 918.895C750.155 918.915 750.176 918.934 750.197 918.952Z" fill="#FA4A0C"/>
<path d="M768.05 919.493L765.272 927.882L767.104 919.228C767.136 919.107 767.214 919.002 767.321 918.936C767.428 918.87 767.556 918.847 767.679 918.873C767.802 918.899 767.911 918.971 767.982 919.074C768.054 919.177 768.083 919.304 768.064 919.428L768.05 919.493Z" fill="#FA4A0C"/>
<path d="M761.383 944.151L763.215 935.499L760.437 943.899C760.415 943.963 760.407 944.03 760.412 944.097C760.417 944.164 760.436 944.229 760.468 944.289C760.499 944.348 760.543 944.401 760.595 944.442C760.648 944.484 760.709 944.515 760.774 944.533C760.839 944.55 760.906 944.554 760.973 944.544C761.04 944.534 761.103 944.511 761.16 944.476C761.218 944.44 761.267 944.393 761.305 944.338C761.343 944.283 761.37 944.22 761.383 944.154V944.151Z" fill="#FA4A0C"/>
<path d="M775.562 925.762L767.662 929.736L775.074 924.92C775.128 924.882 775.189 924.855 775.254 924.841C775.318 924.827 775.385 924.826 775.45 924.839C775.515 924.851 775.576 924.877 775.631 924.913C775.686 924.95 775.733 924.998 775.769 925.053C775.805 925.108 775.829 925.17 775.841 925.235C775.852 925.3 775.851 925.367 775.836 925.431C775.821 925.496 775.794 925.556 775.755 925.61C775.716 925.663 775.667 925.708 775.61 925.742L775.562 925.762Z" fill="#FA4A0C"/>
<path d="M753.413 938.481L760.827 933.665L752.927 937.639C752.819 937.702 752.738 937.803 752.702 937.923C752.667 938.043 752.678 938.173 752.734 938.284C752.79 938.396 752.887 938.483 753.005 938.525C753.122 938.568 753.252 938.565 753.367 938.515C753.383 938.505 753.399 938.494 753.413 938.481Z" fill="#FA4A0C"/>
<path d="M776.442 935.505L768.053 932.727L776.707 934.56C776.829 934.592 776.933 934.67 776.999 934.777C777.065 934.884 777.088 935.012 777.062 935.135C777.037 935.258 776.965 935.366 776.862 935.438C776.758 935.51 776.631 935.539 776.507 935.52L776.442 935.505Z" fill="#FA4A0C"/>
<path d="M751.788 928.836L760.44 930.669L752.05 927.89C751.989 927.87 751.924 927.861 751.86 927.866C751.796 927.871 751.733 927.888 751.675 927.917C751.617 927.945 751.566 927.985 751.524 928.034C751.481 928.083 751.449 928.139 751.429 928.201C751.408 928.262 751.4 928.326 751.405 928.391C751.409 928.455 751.426 928.518 751.455 928.576C751.484 928.633 751.524 928.685 751.573 928.727C751.621 928.769 751.678 928.802 751.739 928.822C751.755 928.828 751.771 928.833 751.788 928.836Z" fill="#FA4A0C"/>
<path d="M770.293 942.954L766.24 935.099L771.14 942.463C771.203 942.571 771.223 942.7 771.194 942.822C771.166 942.944 771.092 943.051 770.988 943.12C770.883 943.19 770.756 943.216 770.632 943.195C770.509 943.173 770.398 943.106 770.323 943.005C770.313 942.989 770.305 942.972 770.297 942.954H770.293Z" fill="#FA4A0C"/>
<path d="M757.349 920.939L762.249 928.303L758.196 920.443C758.164 920.387 758.121 920.337 758.069 920.297C758.017 920.257 757.958 920.228 757.895 920.211C757.832 920.195 757.767 920.191 757.702 920.199C757.637 920.208 757.575 920.23 757.519 920.263C757.463 920.296 757.414 920.341 757.375 920.393C757.336 920.445 757.308 920.505 757.292 920.568C757.277 920.631 757.274 920.697 757.284 920.762C757.294 920.826 757.317 920.888 757.351 920.943L757.349 920.939Z" fill="#FA4A0C"/>
<path d="M737.345 922.847L736.784 932.958L736.223 922.847C736.217 922.7 736.269 922.556 736.368 922.447C736.467 922.338 736.605 922.272 736.752 922.264C736.899 922.256 737.044 922.305 737.155 922.403C737.266 922.5 737.334 922.636 737.345 922.783C737.346 922.805 737.346 922.826 737.345 922.847Z" fill="#FA9330"/>
<path d="M737.345 952.09L736.784 941.978L736.22 952.09C736.214 952.165 736.223 952.24 736.247 952.311C736.27 952.382 736.308 952.447 736.357 952.504C736.407 952.56 736.467 952.606 736.534 952.639C736.601 952.672 736.675 952.691 736.749 952.695C736.824 952.699 736.899 952.688 736.969 952.663C737.04 952.638 737.105 952.599 737.16 952.548C737.215 952.498 737.26 952.437 737.291 952.368C737.322 952.3 737.339 952.227 737.342 952.152C737.344 952.131 737.346 952.111 737.345 952.09Z" fill="#FA9330"/>
<path d="M747.521 927.527L739.975 934.28L746.728 926.733C746.829 926.629 746.966 926.567 747.112 926.562C747.257 926.557 747.399 926.608 747.507 926.705C747.615 926.802 747.682 926.937 747.693 927.082C747.703 927.227 747.658 927.37 747.565 927.482L747.521 927.527Z" fill="#FA9330"/>
<path d="M726.841 948.206L733.595 940.659L726.049 947.412C725.991 947.46 725.943 947.52 725.908 947.587C725.873 947.654 725.853 947.728 725.847 947.803C725.841 947.878 725.851 947.954 725.875 948.026C725.9 948.097 725.938 948.163 725.989 948.22C726.039 948.276 726.1 948.322 726.169 948.354C726.237 948.386 726.311 948.404 726.387 948.406C726.462 948.409 726.538 948.397 726.608 948.37C726.679 948.343 726.743 948.302 726.798 948.249L726.841 948.206Z" fill="#FA9330"/>
<path d="M751.407 938.031L741.295 937.47L751.407 936.909C751.482 936.904 751.557 936.913 751.628 936.936C751.699 936.96 751.764 936.997 751.821 937.047C751.877 937.096 751.923 937.156 751.956 937.223C751.989 937.291 752.008 937.364 752.012 937.439C752.016 937.513 752.005 937.588 751.98 937.659C751.955 937.729 751.916 937.794 751.865 937.849C751.815 937.905 751.753 937.949 751.685 937.98C751.617 938.012 751.544 938.029 751.469 938.031H751.407Z" fill="#FA9330"/>
<path d="M722.161 938.031L732.273 937.47L722.161 936.909C722.086 936.904 722.011 936.913 721.94 936.936C721.869 936.96 721.803 936.997 721.747 937.047C721.691 937.096 721.645 937.156 721.612 937.223C721.579 937.291 721.56 937.364 721.556 937.439C721.552 937.513 721.563 937.588 721.588 937.659C721.613 937.729 721.652 937.794 721.703 937.849C721.753 937.905 721.814 937.949 721.882 937.98C721.95 938.012 722.024 938.029 722.099 938.031H722.161Z" fill="#FA9330"/>
<path d="M746.836 948.104L740 940.627L747.613 947.307C747.725 947.406 747.793 947.544 747.803 947.693C747.813 947.842 747.763 947.988 747.665 948.1C747.566 948.212 747.428 948.28 747.279 948.29C747.13 948.299 746.984 948.25 746.872 948.151C746.859 948.137 746.847 948.121 746.836 948.104Z" fill="#FA9330"/>
<path d="M725.952 927.641L733.565 934.321L726.729 926.844C726.679 926.79 726.619 926.746 726.552 926.714C726.486 926.683 726.413 926.665 726.34 926.662C726.266 926.658 726.192 926.669 726.123 926.695C726.054 926.72 725.99 926.758 725.935 926.808C725.881 926.858 725.837 926.917 725.805 926.984C725.774 927.051 725.756 927.123 725.753 927.197C725.749 927.271 725.761 927.344 725.786 927.414C725.811 927.483 725.849 927.547 725.899 927.601C725.916 927.616 725.934 927.629 725.952 927.641Z" fill="#FA9330"/>
<path d="M739.722 928.057L737.578 934.535L738.992 927.855C739.016 927.761 739.076 927.68 739.159 927.629C739.242 927.578 739.341 927.56 739.436 927.58C739.531 927.6 739.615 927.656 739.67 927.736C739.726 927.816 739.748 927.914 739.733 928.01C739.73 928.026 739.726 928.042 739.722 928.057Z" fill="#FA9330"/>
<path d="M734.578 947.078L735.992 940.398L733.848 946.876C733.83 946.924 733.822 946.975 733.824 947.026C733.826 947.077 733.838 947.127 733.86 947.173C733.882 947.219 733.914 947.261 733.952 947.294C733.99 947.328 734.035 947.354 734.083 947.37C734.132 947.386 734.183 947.392 734.234 947.388C734.285 947.384 734.334 947.369 734.38 947.345C734.425 947.321 734.465 947.289 734.497 947.249C734.529 947.209 734.553 947.164 734.567 947.114C734.571 947.103 734.575 947.091 734.578 947.078Z" fill="#FA9330"/>
<path d="M745.52 932.89L739.42 935.957L745.14 932.236C745.181 932.206 745.229 932.184 745.279 932.172C745.329 932.16 745.382 932.159 745.432 932.168C745.483 932.177 745.532 932.197 745.575 932.225C745.618 932.254 745.655 932.291 745.683 932.334C745.711 932.378 745.73 932.426 745.739 932.477C745.748 932.528 745.746 932.58 745.734 932.63C745.721 932.681 745.699 932.728 745.668 932.769C745.637 932.81 745.598 932.845 745.553 932.87C745.543 932.878 745.531 932.885 745.52 932.89Z" fill="#FA9330"/>
<path d="M728.428 942.712L734.148 938.983L728.048 942.048C727.961 942.095 727.897 942.174 727.867 942.268C727.838 942.362 727.846 942.463 727.89 942.551C727.935 942.639 728.011 942.707 728.104 942.739C728.197 942.771 728.299 942.767 728.388 942.725L728.428 942.712Z" fill="#FA9330"/>
<path d="M746.198 940.406L739.719 938.264L746.399 939.676C746.449 939.684 746.498 939.703 746.541 939.73C746.584 939.758 746.621 939.794 746.65 939.836C746.679 939.878 746.699 939.926 746.709 939.976C746.719 940.026 746.719 940.078 746.708 940.128C746.698 940.178 746.677 940.226 746.648 940.268C746.619 940.31 746.581 940.345 746.537 940.372C746.494 940.399 746.445 940.417 746.395 940.425C746.344 940.433 746.292 940.43 746.243 940.417L746.198 940.406Z" fill="#FA9330"/>
<path d="M727.175 935.262L733.855 936.676L727.38 934.534C727.285 934.503 727.181 934.51 727.091 934.555C727.001 934.6 726.933 934.679 726.902 934.774C726.87 934.87 726.878 934.973 726.923 935.063C726.968 935.153 727.047 935.221 727.142 935.252L727.175 935.262Z" fill="#FA9330"/>
<path d="M741.452 946.154L738.325 940.095L742.103 945.778C742.152 945.862 742.167 945.961 742.145 946.056C742.124 946.15 742.066 946.233 741.985 946.286C741.905 946.34 741.806 946.36 741.711 946.343C741.615 946.327 741.53 946.274 741.472 946.196L741.452 946.154Z" fill="#FA9330"/>
<path d="M731.466 929.167L735.244 934.848L732.117 928.789C732.069 928.703 731.99 928.639 731.895 928.611C731.801 928.582 731.699 928.592 731.612 928.637C731.524 928.682 731.458 928.76 731.426 928.853C731.395 928.947 731.401 929.049 731.444 929.137C731.451 929.148 731.458 929.158 731.466 929.167Z" fill="#FA9330"/>
<path d="M757.679 983.122V970.068H739.599V983.123C739.599 983.123 739.599 992.215 747.999 992.659V1019.64H748.073C746.681 1021.36 741.992 1023.14 741.992 1023.14H755.279C755.279 1023.14 750.508 1021.06 749.353 1019.64C749.325 1019.64 749.298 1019.64 749.27 1019.63V992.659C757.671 992.219 757.679 983.122 757.679 983.122Z" fill="white"/>
<path d="M749.137 976.017C747.096 977.77 743.888 977.672 741.037 978.207V982.846C741.037 982.846 741.037 990.884 748.637 990.884C756.237 990.884 756.237 982.846 756.237 982.846V973.729C753.667 973.571 751.132 974.388 749.137 976.017Z" fill="#FFE3CD"/>
</g>
</g>
<defs>
<clipPath id="clip0_2264_27577">
<rect width="1440" height="1024" fill="white"/>
</clipPath>
<clipPath id="clip1_2264_27577">
<rect width="835.019" height="285.905" fill="white" transform="translate(302 369)"/>
</clipPath>
<clipPath id="clip2_2264_27577">
<rect width="345" height="471" fill="white" transform="translate(1184 300)"/>
</clipPath>
<clipPath id="clip3_2264_27577">
<rect width="492.175" height="106.996" fill="white" transform="translate(474)"/>
</clipPath>
<clipPath id="clip4_2264_27577">
<rect width="184.679" height="139.164" fill="white" transform="translate(88 379)"/>
</clipPath>
<clipPath id="clip5_2264_27577">
<rect width="28.541" height="29.8" fill="white" transform="translate(251 794)"/>
</clipPath>
<clipPath id="clip6_2264_27577">
<rect width="127.964" height="117.706" fill="white" transform="translate(656 912)"/>
</clipPath>
</defs>
</svg>
